# Blender v2.90.1 OBJ File: 'peg3D.blend'
# www.blender.org
mtllib peg3D.mtl
o Peg_peg
v 0.292946 0.028260 0.143355
v 0.292346 0.020020 0.151303
v 0.300000 0.017268 0.142268
v 0.292966 0.028304 -0.143386
v 0.300000 0.017268 -0.142213
v 0.292365 0.020048 -0.151359
v -0.092734 0.197303 0.192268
v -0.100000 0.192268 0.192268
v -0.092240 0.188830 0.200027
v -0.092240 0.188830 -0.199973
v -0.100000 0.192268 -0.192213
v -0.092734 0.197303 -0.192213
v 0.292946 -0.028206 0.143355
v 0.300000 -0.017213 0.142268
v 0.292346 -0.019965 0.151303
v 0.292966 -0.028249 -0.143386
v 0.292365 -0.019993 -0.151359
v 0.300000 -0.017213 -0.142213
v -0.092240 -0.188776 0.200027
v -0.100000 -0.192213 0.192268
v -0.092734 -0.197248 0.192268
v -0.092240 -0.188776 -0.199973
v -0.092734 -0.197248 -0.192213
v -0.100000 -0.192213 -0.192213
v 0.000000 -0.154713 0.092268
v 0.007760 -0.150380 0.100027
v -0.007054 -0.165706 0.107787
v 0.000000 0.154768 0.092268
v -0.007054 0.165760 0.107787
v 0.007760 0.150435 0.100027
v 0.000000 -0.154713 -0.092213
v -0.007054 -0.165706 -0.107732
v 0.007760 -0.150380 -0.099973
v 0.000000 0.154768 -0.092213
v 0.007760 0.150435 -0.099973
v -0.007054 0.165760 -0.107732
v 0.292946 -0.028206 -0.107732
v 0.300000 -0.017213 -0.107732
v 0.292240 -0.019993 -0.099973
v 0.292946 0.028260 -0.107732
v 0.292240 0.020048 -0.099973
v 0.300000 0.017268 -0.107732
v 0.292946 -0.028206 0.107787
v 0.292240 -0.019993 0.100027
v 0.300000 -0.017213 0.107787
v 0.292946 0.028260 0.107787
v 0.300000 0.017268 0.107787
v 0.292240 0.020048 0.100027
v 0.016898 0.147903 -0.199973
v 0.022845 0.150446 -0.192945
v 0.032292 0.141189 -0.198586
v 0.032292 -0.141134 -0.198586
v 0.022845 -0.150392 -0.192945
v 0.016898 -0.147849 -0.199973
v 0.007654 0.150503 0.198752
v -0.000531 0.162756 0.192267
v -0.007760 0.157150 0.200027
v -0.007760 -0.157095 0.200027
v -0.000532 -0.162700 0.192268
v 0.007654 -0.150449 0.198752
vt 0.572199 0.961202
vt 0.572199 0.788798
vt 0.615300 0.788798
vt 0.615300 0.961202
vt 0.130371 0.504850
vt 0.369629 0.504850
vt 0.369124 0.557650
vt 0.130876 0.557650
vt 0.384700 0.278287
vt 0.384700 0.471713
vt 0.615301 0.471713
vt 0.615300 0.278287
vt 0.384312 0.004416
vt 0.428323 0.004416
vt 0.432243 0.192238
vt 0.567564 0.192215
vt 0.571640 0.004414
vt 0.615714 0.004409
vt 0.620861 0.172547
vt 0.620125 0.245474
vt 0.379870 0.245474
vt 0.379585 0.187947
vt 0.384700 0.788798
vt 0.427800 0.788798
vt 0.427800 0.961202
vt 0.384700 0.961202
vt 0.379850 0.254850
vt 0.620150 0.254850
vt 0.620150 0.495150
vt 0.379850 0.495150
vt 0.344284 0.504850
vt 0.155716 0.504850
vt 0.225860 0.682650
vt 0.274140 0.682650
vt 0.632854 0.582683
vt 0.867146 0.582683
vt 0.844064 0.745228
vt 0.655936 0.745228
vt 0.844284 0.504850
vt 0.655716 0.504850
vt 0.725860 0.682650
vt 0.774140 0.682650
vt 0.379870 0.504526
vt 0.620125 0.504526
vt 0.620861 0.577453
vt 0.615714 0.745591
vt 0.571640 0.745586
vt 0.567564 0.557785
vt 0.432243 0.557761
vt 0.428323 0.745584
vt 0.384312 0.745584
vt 0.379585 0.562053
vt 0.630413 0.504850
vt 0.869587 0.504850
vt 0.868877 0.573061
vt 0.631123 0.573061
vt 0.123319 0.746387
vt 0.125000 0.747187
vt 0.163798 0.750000
vt 0.616767 1.016382
vt 0.625000 0.961202
vt 0.625000 0.975103
vt 0.125000 0.504541
vt 0.129850 0.500000
vt 0.125000 0.506553
vt 0.624984 0.243276
vt 0.620150 0.250000
vt 0.620150 0.250000
vt 0.376681 0.746387
vt 0.336202 0.750000
vt 0.375000 0.747187
vt 0.616767 0.733618
vt 0.625000 0.774897
vt 0.625000 0.788798
vt 0.370150 0.500000
vt 0.375000 0.504541
vt 0.625000 0.493002
vt 0.620150 0.500000
vt 0.620150 0.500000
vt 0.442397 0.564245
vt 0.437500 0.569370
vt 0.437500 0.562500
vt 0.442397 0.185755
vt 0.437500 0.187500
vt 0.437500 0.180630
vt 0.557601 0.564242
vt 0.562500 0.562500
vt 0.562500 0.569370
vt 0.557601 0.185758
vt 0.562500 0.180630
vt 0.562500 0.187500
vt 0.572200 0.733835
vt 0.562500 0.788798
vt 0.562500 0.774897
vt 0.572200 1.016165
vt 0.562500 0.975103
vt 0.562500 0.961202
vt 0.427801 0.733835
vt 0.437500 0.774897
vt 0.437500 0.788798
vt 0.427800 1.016165
vt 0.437500 0.961202
vt 0.437500 0.975103
vt 0.624984 0.175064
vt 0.625000 0.171697
vt 0.625000 0.165329
vt 0.133028 0.567284
vt 0.125000 0.562162
vt 0.125000 0.559353
vt 0.367610 0.567284
vt 0.132390 0.567284
vt 0.155954 0.745216
vt 0.125000 0.746252
vt 0.125000 0.562832
vt 0.572200 0.000000
vt 0.615301 0.000000
vt 0.625000 0.175236
vt 0.625000 0.243447
vt 0.625000 0.256998
vt 0.344046 0.745216
vt 0.557650 0.562500
vt 0.442350 0.562500
vt 0.442350 0.187500
vt 0.557650 0.187500
vt 0.562500 0.747171
vt 0.562500 0.002829
vt 0.437500 0.002829
vt 0.437500 0.747171
vt 0.375000 0.280995
vt 0.375000 0.469005
vt 0.625000 0.469005
vt 0.625000 0.280995
vt 0.427800 1.000000
vt 0.383341 1.000000
vt 0.625000 0.002784
vn 1.0000 0.0000 0.0000
vn 0.0000 0.0000 1.0000
vn 0.3844 0.9232 -0.0052
vn -1.0000 0.0000 0.0000
vn -0.0000 0.0000 -1.0000
vn 0.1787 -0.0000 -0.9839
vn 0.3844 -0.9232 -0.0051
vn 0.7490 0.4309 0.5033
vn 0.7537 0.4273 -0.4993
vn -0.4163 0.6008 0.6825
vn -0.4163 0.6008 -0.6825
vn 0.7490 -0.4309 0.5033
vn 0.7537 -0.4273 -0.4993
vn -0.4163 -0.6008 0.6825
vn -0.4163 -0.6008 -0.6825
vn 0.6392 -0.7340 -0.2294
vn 0.6392 0.7340 -0.2294
vn 0.6392 -0.7340 0.2294
vn 0.6392 0.7340 0.2294
vn 0.7063 -0.4532 0.5439
vn 0.7063 0.4532 0.5439
vn 0.7063 -0.4532 -0.5439
vn 0.7063 0.4532 -0.5439
vn 0.3697 0.7286 -0.5766
vn 0.3697 -0.7286 -0.5766
vn 0.3199 0.6012 0.7323
vn 0.3199 -0.6013 0.7322
vn 0.3975 0.6221 0.6745
vn 0.8424 0.5388 0.0006
vn 0.2785 0.7182 -0.6377
vn -0.5696 0.8219 0.0000
vn -0.7071 0.0000 0.7071
vn -0.7071 -0.0000 -0.7071
vn -0.5696 -0.8219 0.0000
vn 0.2480 -0.6616 0.7077
vn 0.4215 -0.6796 -0.6004
vn 0.8416 -0.5401 0.0000
vn 0.7630 -0.0000 0.6464
vn 0.7677 0.0000 -0.6408
vn 0.8416 0.5401 -0.0000
vn 0.2946 -0.6428 0.7071
vn 0.7071 0.0000 0.7071
vn 0.2946 0.6428 0.7071
vn 0.2946 0.6428 -0.7071
vn 0.7071 0.0000 -0.7071
vn 0.2946 -0.6428 -0.7071
vn 0.8424 -0.5388 0.0006
vn 0.4215 0.6796 -0.6004
vn 0.2785 -0.7182 -0.6377
vn 0.0897 -0.0000 -0.9960
vn 0.2480 0.6616 0.7077
vn 0.3975 -0.6222 0.6744
vn 0.0825 0.0000 0.9966
vn 0.1644 0.0000 0.9864
usemtl None
s off
f 42/1/1 38/2/1 18/3/1 5/4/1
f 9/5/2 19/6/2 58/7/2 57/8/2
f 28/9/1 25/10/1 31/11/1 34/12/1
f 1/13/3 46/14/3 29/15/3 36/16/3 40/17/3 4/18/3 50/19/3 12/20/3 7/21/3 56/22/3
f 14/23/1 45/24/1 47/25/1 3/26/1
f 8/27/4 11/28/4 24/29/4 20/30/4
f 26/31/5 30/32/5 48/33/5 44/34/5
f 52/35/6 51/36/6 6/37/6 17/38/6
f 35/39/2 33/40/2 39/41/2 41/42/2
f 21/43/7 23/44/7 53/45/7 16/46/7 37/47/7 32/48/7 27/49/7 43/50/7 13/51/7 59/52/7
f 22/53/5 10/54/5 49/55/5 54/56/5
f 1/57/8 2/58/8 3/59/8
f 4/60/9 5/61/9 6/62/9
f 7/63/10 8/64/10 9/65/10
f 10/66/11 11/67/11 12/68/11
f 13/69/12 14/70/12 15/71/12
f 16/72/13 17/73/13 18/74/13
f 19/6/14 20/75/14 21/76/14
f 22/77/15 23/78/15 24/79/15
f 25/80/16 26/81/16 27/82/16
f 28/83/17 29/84/17 30/85/17
f 31/86/18 32/87/18 33/88/18
f 34/89/19 35/90/19 36/91/19
f 37/92/20 38/93/20 39/94/20
f 40/95/21 41/96/21 42/97/21
f 43/98/22 44/99/22 45/100/22
f 46/101/23 47/102/23 48/103/23
f 49/104/24 50/105/24 51/106/24
f 52/35/25 53/45/25 54/56/25
f 55/107/26 56/108/26 57/109/26
f 58/7/27 59/52/27 60/110/27
f 55/111/28 2/112/28 1/113/28 56/114/28
f 42/115/29 5/116/29 4/18/29 40/17/29
f 49/117/30 10/118/30 12/20/30 50/19/30
f 11/28/31 8/27/31 7/21/31 12/20/31
f 19/6/32 9/5/32 8/64/32 20/75/32
f 10/119/33 22/77/33 24/29/33 11/28/33
f 23/44/34 21/43/34 20/30/34 24/29/34
f 58/7/35 19/6/35 21/43/35 59/52/35
f 52/35/36 17/38/36 16/46/36 53/45/36
f 45/24/37 14/23/37 13/51/37 43/50/37
f 2/112/38 15/120/38 14/70/38 3/59/38
f 17/73/39 6/62/39 5/4/39 18/3/39
f 31/121/37 25/122/37 27/49/37 32/48/37
f 36/16/40 29/15/40 28/123/40 34/124/40
f 32/48/41 37/47/41 39/125/41 33/88/41
f 41/96/42 39/94/42 38/2/42 42/1/42
f 35/90/43 41/126/43 40/17/43 36/16/43
f 29/15/44 46/14/44 48/127/44 30/85/44
f 44/99/45 48/103/45 47/25/45 45/24/45
f 26/81/46 44/128/46 43/50/46 27/49/46
f 18/3/47 38/2/47 37/47/47 16/46/47
f 25/10/45 28/9/45 30/129/45 26/130/45
f 34/12/42 31/11/42 33/131/42 35/132/42
f 3/26/40 47/25/40 46/133/40 1/134/40
f 6/135/48 51/106/48 50/19/48 4/18/48
f 22/53/49 54/56/49 53/45/49 23/44/49
f 51/36/50 52/35/50 54/56/50 49/55/50
f 9/5/51 57/8/51 56/108/51 7/63/51
f 15/120/52 60/110/52 59/52/52 13/51/52
f 60/110/53 55/111/53 57/8/53 58/7/53
f 55/111/54 60/110/54 15/120/54 2/112/54
