# Blender v2.82 (sub 7) OBJ File: 'weapons3d.blend'
# www.blender.org
mtllib 3d_axe.mtl
o Axe_Curve.002
v 0.441589 0.448733 0.046699
v 0.558156 0.344680 0.051703
v 0.358083 0.373645 0.048808
v 0.364971 0.161395 0.046005
v 0.247653 0.255098 0.047408
v 0.349462 0.148084 -0.050856
v 0.291019 0.188468 0.036923
v 0.276203 0.054775 -0.062612
v 0.127432 0.149549 -0.058518
v 0.127505 0.127841 0.041551
v 0.155735 -0.048040 0.046876
v 0.058529 0.054476 0.045177
v 0.447381 0.443433 -0.057129
v 0.547341 0.339655 -0.048222
v 0.405131 0.414130 -0.054500
v 0.458071 0.265467 -0.044276
v 0.364442 0.277137 -0.050264
v 0.258144 0.261944 -0.057134
v 0.194472 0.106620 -0.048621
v 0.162705 -0.042018 -0.052108
v 0.050538 0.061566 -0.053026
v 0.076992 -0.026384 0.076480
v -0.081515 0.096006 0.069146
v -0.010837 0.044153 0.060963
v -0.194511 -0.021271 0.067278
v -0.099226 -0.049466 0.053860
v -0.271648 -0.081639 0.067100
v -0.044396 0.089660 -0.069535
v 0.016822 0.012908 -0.069099
v -0.092066 0.082516 -0.071877
v -0.169854 -0.003990 -0.066948
v 0.380068 -0.175639 0.056546
v 0.388467 -0.163726 -0.073740
v 0.391374 -0.270874 0.071782
v 0.310566 -0.176564 -0.079158
v 0.311075 -0.168339 0.066828
v 0.133470 -0.098718 0.065511
v 0.262152 -0.170676 0.068253
v 0.264080 -0.179770 -0.076503
v 0.200324 -0.177153 0.052541
v 0.302551 -0.327087 0.050046
v 0.343594 -0.388115 0.057008
v 0.228336 -0.422306 0.064617
v 0.257915 -0.500888 -0.074207
v 0.239338 -0.508275 0.063360
v 0.190151 -0.391216 0.065066
v 0.115676 -0.437059 -0.076415
v 0.177180 -0.457019 -0.077520
v 0.081883 -0.570176 0.062197
v 0.200333 -0.169877 -0.071564
v 0.388807 -0.251366 -0.068648
v 0.342217 -0.387067 -0.062660
v 0.293992 -0.339730 -0.064338
v 0.250401 -0.292285 0.066260
v 0.213254 -0.354821 -0.057028
v 0.065360 -0.178879 0.055733
v -0.030710 -0.103122 0.063308
v -0.031153 -0.245547 0.067787
v -0.135647 -0.277024 0.062739
v -0.109339 -0.319068 0.050332
v -0.260518 -0.159358 0.074344
v -0.264641 -0.088669 -0.071918
v -0.261297 -0.144904 -0.063371
v -0.222953 -0.212203 0.045759
v -0.221916 -0.218047 -0.047305
v -0.293392 -0.291293 0.052241
v -0.020343 -0.386831 0.061755
v 0.065326 -0.453378 0.077302
v 0.122393 -0.484404 0.065649
v -0.013384 -0.449733 0.064223
v -0.009261 -0.439424 -0.059013
v 0.073526 -0.503477 -0.065523
v -0.019031 -0.493639 0.061567
v -0.026854 -0.582404 -0.084482
v -0.018108 -0.571050 0.063887
v -0.188662 -0.381011 0.037502
v 0.114066 -0.079662 -0.068299
v -0.053992 -0.202015 -0.072660
v -0.016064 -0.113639 -0.061402
v 0.059912 -0.319727 -0.067539
v -0.015583 -0.385862 -0.064488
v -0.160548 -0.248405 -0.074602
v -0.111271 -0.320750 -0.052617
v -0.288335 -0.294823 -0.052104
v -0.179301 -0.385849 -0.051790
v -0.016927 -0.499139 -0.070451
v 0.130993 -0.562526 -0.064368
vn -0.0090 0.0380 0.9992
vn 0.6660 0.7460 -0.0009
vn -0.6688 0.7434 -0.0133
vn 0.0161 0.0328 0.9993
vn 0.0308 -0.0576 -0.9979
vn 0.7205 0.6843 -0.1124
vn 0.0635 -0.0028 -0.9980
vn -0.7177 0.6942 -0.0548
vn 0.0884 -0.0906 -0.9920
vn -0.0599 0.1709 -0.9835
vn -0.7168 0.6813 0.1483
vn 0.0683 -0.1215 -0.9902
vn -0.1058 -0.0700 0.9919
vn 0.6013 -0.7920 0.1059
vn 0.6788 0.7333 -0.0385
vn -0.7538 0.6552 -0.0495
vn 0.0319 0.0348 -0.9989
vn -0.6510 -0.7590 -0.0059
vn -0.0165 -0.0137 0.9998
vn 0.6851 -0.7183 -0.1215
vn -0.7312 0.6815 -0.0288
vn 0.0912 -0.0966 0.9911
vn -0.1281 -0.0173 0.9916
vn 0.7345 -0.6782 -0.0244
vn 0.7884 -0.6137 -0.0419
vn 0.0692 -0.1110 0.9914
vn -0.7226 0.6755 0.1470
vn -0.0881 0.0921 0.9918
vn 0.0174 0.0330 0.9993
vn 0.7030 -0.7019 0.1144
vn -0.0016 -0.0871 -0.9962
vn 0.0718 -0.0521 -0.9961
vn 0.0649 -0.0030 -0.9979
vn 0.0003 -0.0548 -0.9985
vn -0.6518 0.7582 -0.0158
vn -0.1362 0.0523 -0.9893
vn 0.6489 -0.7609 -0.0006
vn -0.6784 -0.7346 0.0022
vn -0.7218 -0.6859 -0.0926
vn -0.7452 0.6580 0.1082
vn 0.0249 0.0181 -0.9995
vn 0.6914 -0.7225 -0.0012
vn 0.1188 -0.0244 0.9926
vn 0.6855 0.7277 -0.0247
vn -0.7479 0.6613 -0.0586
vn -0.0303 0.0190 -0.9994
vn -0.6406 -0.7674 -0.0256
vn -0.5714 0.8173 -0.0736
vn 0.6381 -0.7694 -0.0304
vn 0.5963 0.7933 0.1233
vn 0.1046 -0.1165 0.9877
vn -0.1127 0.0310 0.9931
vn 0.6309 0.7741 -0.0518
vn 0.6871 0.7210 -0.0894
vn 0.7860 0.6177 -0.0260
vn -0.0069 -0.0507 -0.9987
vn 0.0446 0.0299 -0.9986
vn -0.6625 0.7457 -0.0711
vn 0.9931 0.1176 -0.0018
vn 0.0967 0.9937 -0.0563
vn -0.2471 0.0080 0.9690
vn -0.2169 -0.0346 0.9756
vn 0.9951 -0.0965 0.0193
vn -0.1245 0.0638 0.9902
vn 0.7554 -0.6519 0.0670
vn -0.7729 0.6218 0.1263
vn 0.4493 -0.8919 0.0525
vn -0.5057 0.8622 -0.0286
vn 0.0103 -0.0451 0.9989
vn 0.0676 -0.0059 0.9977
vn 0.9979 0.0077 0.0650
vn 0.1575 0.9858 0.0578
vn 0.9455 -0.3252 -0.0137
vn -0.9923 0.1065 0.0625
vn -0.0900 -0.0843 -0.9924
vn 0.0775 0.0436 -0.9960
vn 0.6528 -0.7509 -0.1003
vn 0.0952 0.1200 -0.9882
vn 0.4375 -0.8992 0.0108
vn 0.3640 -0.9275 0.0852
vn -0.0090 -0.1568 0.9876
vn 0.1028 0.0309 0.9942
vn 0.2599 0.4795 0.8382
vn -0.0577 0.0316 0.9978
vn -0.0673 0.0830 0.9943
vn -0.9967 -0.0664 -0.0469
vn -0.0109 0.2142 0.9767
vn -0.9930 -0.1114 -0.0383
vn 0.0173 -0.0484 0.9987
vn -0.9923 0.1218 -0.0209
vn -0.9982 -0.0101 0.0596
vn -0.0954 0.1660 -0.9815
vn -0.0397 -0.0504 -0.9979
vn 0.0433 0.0102 -0.9990
vn 0.0525 0.1040 -0.9932
vn 0.0085 0.0223 -0.9997
vn -0.0012 -0.0447 -0.9990
vn 0.0443 -0.0964 -0.9944
vn 0.1059 0.1529 -0.9825
vn 0.0501 0.9979 -0.0408
vn 0.0229 0.0573 0.9981
vn -0.0740 -0.0914 -0.9931
vn -0.1674 0.9827 0.0791
vn 0.8540 -0.5202 0.0065
vn -0.1437 0.9861 -0.0836
vn -0.1462 0.0355 0.9886
vn -0.7200 0.6939 -0.0125
vn 0.0353 -0.1087 0.9935
vn -0.6162 0.7875 -0.0118
vn -0.0062 -0.0591 -0.9982
vn -0.7441 0.6662 -0.0509
vn 0.1632 0.1747 0.9710
vn -0.0880 0.9941 -0.0636
vn 0.0252 -0.1421 0.9895
vn -0.1802 -0.0938 0.9791
vn -0.9986 0.0536 0.0005
vn 0.9269 -0.3691 -0.0682
vn 0.0266 0.1309 0.9910
vn 0.0170 -0.0124 0.9998
vn 0.0787 -0.0575 -0.9952
vn 0.7226 0.6912 -0.0063
vn 0.7636 0.6446 0.0378
vn -0.0064 -0.0419 -0.9991
vn 0.0430 -0.0947 -0.9946
vn 0.9469 -0.2903 -0.1381
vn 0.0660 0.0463 -0.9967
vn 0.8042 -0.5942 -0.0145
vn -0.7069 0.7069 -0.0252
vn -0.4071 0.9132 0.0189
vn -0.0214 -0.1144 -0.9932
vn -0.0103 -0.1124 0.9936
vn 0.0401 0.0319 0.9987
vn 0.0571 -0.0377 0.9977
vn 0.0669 0.0830 0.9943
vn -0.0166 -0.0439 0.9989
vn -0.0346 -0.0453 0.9984
vn -0.7186 -0.6920 -0.0686
vn -0.9897 -0.1426 -0.0094
vn -0.6869 -0.7263 -0.0268
vn -0.0321 -0.9959 -0.0844
vn -0.1630 0.0207 0.9864
vn -0.6894 -0.7237 -0.0315
vn -0.0612 0.9907 -0.1213
vn -0.0308 0.0296 0.9991
vn -0.0333 0.0043 -0.9994
vn 0.0338 -0.0108 -0.9994
vn 0.0344 -0.0372 -0.9987
vn -0.6868 -0.7263 -0.0268
vn -0.2706 -0.1604 -0.9493
vn 0.0043 -0.9946 -0.1042
vn -0.1381 0.0093 -0.9904
vn -0.9916 -0.1215 -0.0433
vn 0.0560 0.0350 -0.9978
vn 0.1263 -0.9919 -0.0109
vn 0.0512 -0.0747 -0.9959
vn 0.7816 0.6235 0.0164
vn 0.0100 -0.9971 0.0757
usemtl Main
s off
f 3//1 2//1 1//1
f 2//2 13//2 1//2
f 1//3 15//3 3//3
f 10//4 11//4 7//4
f 14//5 16//5 17//5 15//5
f 14//6 13//6 2//6
f 6//7 17//7 16//7
f 18//8 3//8 15//8
f 9//9 18//9 19//9
f 8//10 19//10 6//10
f 10//11 9//11 12//11
f 21//12 9//12 19//12
f 64//13 76//13 60//13
f 76//14 85//14 60//14
f 83//15 65//15 64//15
f 84//16 64//16 65//16
f 85//17 84//17 65//17
f 76//18 66//18 84//18
f 3//19 4//19 2//19
f 2//20 4//20 16//20
f 3//21 18//21 5//21
f 3//22 5//22 7//22
f 3//23 7//23 4//23
f 4//24 6//24 16//24
f 4//25 8//25 6//25
f 5//26 10//26 7//26
f 5//27 9//27 10//27
f 4//28 7//28 11//28
f 10//29 12//29 11//29
f 11//30 8//30 4//30
f 14//31 15//31 13//31
f 17//32 18//32 15//32
f 6//33 18//33 17//33
f 6//34 19//34 18//34
f 5//35 18//35 9//35
f 20//36 19//36 8//36
f 20//37 8//37 11//37
f 21//38 20//38 12//38
f 20//39 11//39 12//39
f 21//40 12//40 9//40
f 19//41 20//41 21//41
f 60//42 85//42 83//42
f 64//43 66//43 76//43
f 64//44 60//44 83//44
f 84//45 66//45 64//45
f 83//46 85//46 65//46
f 84//47 85//47 76//47
f 1//48 13//48 15//48
f 2//49 16//49 14//49
usemtl Accent
f 24//50 28//50 23//50
f 25//51 26//51 23//51
f 26//52 57//52 24//52
f 29//53 24//53 22//53
f 22//54 77//54 29//54
f 37//55 77//55 22//55
f 31//56 30//56 29//56
f 29//57 30//57 28//57
f 31//58 62//58 27//58
f 34//59 51//59 32//59
f 32//60 35//60 36//60
f 40//61 54//61 38//61
f 41//62 42//62 34//62
f 54//63 39//63 38//63
f 40//64 46//64 54//64
f 44//65 42//65 45//65
f 43//66 41//66 48//66
f 47//67 46//67 68//67
f 43//68 48//68 69//68
f 69//69 49//69 45//69
f 43//70 45//70 42//70
f 51//71 33//71 32//71
f 50//72 40//72 39//72
f 42//73 52//73 51//73
f 53//74 41//74 35//74
f 55//75 50//75 39//75
f 44//76 53//76 52//76
f 47//77 55//77 46//77
f 47//78 80//78 55//78
f 45//79 87//79 44//79
f 49//80 87//80 45//80
f 57//81 37//81 22//81
f 57//82 58//82 56//82
f 25//83 57//83 26//83
f 57//84 59//84 58//84
f 27//85 61//85 25//85
f 63//86 27//86 62//86
f 46//87 67//87 68//87
f 81//88 70//88 67//88
f 75//89 49//89 69//89
f 74//90 73//90 86//90
f 74//91 75//91 73//91
f 79//92 77//92 78//92
f 79//93 29//93 77//93
f 62//94 31//94 79//94
f 78//95 62//95 79//95
f 82//96 62//96 78//96
f 81//97 78//97 80//97
f 71//98 81//98 80//98
f 74//99 86//99 87//99
f 73//100 72//100 86//100
f 56//101 46//101 40//101
f 87//102 72//102 48//102
f 33//103 35//103 32//103
f 46//104 55//104 54//104
f 28//105 30//105 23//105
f 24//106 57//106 22//106
f 30//107 25//107 23//107
f 24//108 23//108 26//108
f 25//109 31//109 27//109
f 79//110 31//110 29//110
f 25//111 30//111 31//111
f 36//112 34//112 32//112
f 38//113 39//113 40//113
f 40//114 37//114 56//114
f 34//115 36//115 41//115
f 35//116 41//116 36//116
f 34//117 42//117 51//117
f 41//118 43//118 42//118
f 43//119 69//119 45//119
f 51//120 35//120 33//120
f 50//121 77//121 37//121
f 37//122 40//122 50//122
f 52//123 53//123 51//123
f 53//124 35//124 51//124
f 54//125 55//125 39//125
f 48//126 53//126 44//126
f 42//127 44//127 52//127
f 53//128 48//128 41//128
f 48//129 72//129 69//129
f 44//130 87//130 48//130
f 57//131 56//131 37//131
f 25//132 61//132 57//132
f 57//133 61//133 59//133
f 56//134 58//134 46//134
f 46//135 58//135 67//135
f 58//136 59//136 67//136
f 61//137 63//137 82//137
f 63//138 61//138 27//138
f 61//139 82//139 59//139
f 70//140 71//140 68//140
f 67//141 70//141 68//141
f 59//142 81//142 67//142
f 69//143 72//143 73//143
f 73//144 75//144 69//144
f 50//145 80//145 77//145
f 77//146 80//146 78//146
f 81//147 82//147 78//147
f 81//148 59//148 82//148
f 82//149 63//149 62//149
f 68//150 71//150 47//150
f 71//151 80//151 47//151
f 81//152 71//152 70//152
f 87//153 86//153 72//153
f 74//154 87//154 49//154
f 50//155 55//155 80//155
f 28//156 24//156 29//156
f 75//157 74//157 49//157
