# Blender v2.82 (sub 7) OBJ File: 'weapons3d.blend'
# www.blender.org
mtllib 3d_dagger.mtl
o Dagger_Curve.005
v 0.546364 -0.050830 0.065691
v 0.488269 -0.007735 0.068181
v 0.407220 0.035911 0.058576
v 0.317806 -0.057189 0.052561
v 0.274472 0.036206 0.057435
v 0.355208 0.030783 -0.004222
v 0.205070 -0.050609 0.056437
v 0.193879 0.030511 0.052259
v 0.534986 -0.051186 -0.078050
v 0.422707 -0.049364 -0.072889
v 0.329179 -0.061832 -0.065031
v 0.411883 0.036616 -0.081445
v 0.255112 0.043500 -0.091473
v 0.162698 -0.067502 -0.074099
v 0.047097 0.230104 0.051454
v 0.084266 0.172087 0.041455
v 0.068698 0.122326 0.038008
v -0.032516 0.223553 0.041240
v -0.060538 0.177336 0.040664
v 0.023638 0.096138 0.038244
v 0.032262 0.018316 0.042628
v -0.071695 0.120921 -0.047377
v -0.016808 -0.021653 0.046750
v 0.085703 0.031644 -0.071826
v 0.082997 0.035467 0.062968
v 0.044214 -0.034385 0.054352
v -0.069031 0.053351 0.046365
v -0.066420 -0.024849 0.036756
v -0.130477 -0.021964 -0.046553
v -0.159003 -0.017790 0.044535
v -0.192029 -0.122140 0.050820
v -0.270099 -0.024045 0.044056
v -0.271219 -0.018055 -0.055404
v -0.272237 -0.115258 0.054864
v 0.087777 0.187672 -0.059762
v 0.013164 0.241203 -0.049376
v -0.067460 0.197701 -0.055657
v 0.078168 0.112250 -0.055815
v 0.031029 0.077927 -0.048288
v -0.001088 0.134403 -0.051801
v -0.071270 -0.011275 -0.057849
v 0.091188 -0.061541 -0.068191
v 0.029329 -0.035492 -0.050858
v -0.184336 -0.117484 -0.052336
v 0.542819 -0.080916 0.060714
v 0.527252 -0.092868 -0.082928
v 0.421510 -0.158770 0.055304
v 0.404604 -0.160803 -0.009343
v 0.351759 -0.162156 0.046949
v 0.282037 -0.169764 0.058538
v 0.185139 -0.159455 0.048576
v 0.401061 -0.172905 -0.081793
v 0.292683 -0.166843 -0.081891
v 0.162280 -0.169769 -0.077632
v 0.079885 -0.072269 0.060278
v 0.022702 -0.163742 0.040123
v 0.091136 -0.160240 0.049161
v -0.068933 -0.121285 0.047752
v -0.063678 -0.110158 -0.044535
v 0.032806 -0.228697 0.049973
v 0.082934 -0.267272 -0.052962
v -0.070722 -0.247260 0.046744
v -0.068551 -0.187127 -0.055637
v -0.059658 -0.325394 -0.047356
v -0.268605 -0.109854 -0.054555
v 0.079674 -0.334516 0.046924
v 0.011940 -0.378084 0.044745
v 0.051030 -0.358437 -0.049868
v -0.060532 -0.341110 0.048235
v -0.004336 -0.366345 -0.047236
v 0.078416 -0.171585 -0.083178
v 0.038948 -0.219440 -0.059874
v 0.066156 -0.242023 0.044238
v -0.002581 -0.286986 -0.046276
vn 0.8454 0.5227 0.1098
vn -0.1325 0.0680 0.9889
vn 0.4979 -0.8555 0.1421
vn -0.9942 0.0718 0.0800
vn 0.0349 0.0601 0.9976
vn 0.0684 0.0411 0.9968
vn -0.0801 0.1991 0.9767
vn 0.9917 0.1133 0.0609
vn -0.0109 0.1179 0.9930
vn -0.0564 0.9966 0.0607
vn -0.9996 0.0249 0.0128
vn -0.1114 0.0374 -0.9931
vn 0.0706 0.0132 -0.9974
vn -0.4699 0.8803 -0.0654
vn 0.5971 -0.7732 0.2137
vn 0.9996 -0.0145 -0.0230
vn 0.0745 0.0215 -0.9970
vn -0.1483 0.9778 0.1479
vn -0.0802 -0.1072 -0.9910
vn 0.0300 0.9989 -0.0364
vn 0.9920 -0.1256 0.0151
vn -0.1406 -0.0851 0.9864
vn -0.2033 0.1162 0.9722
vn 0.0706 -0.0269 0.9971
vn 0.9841 0.1635 0.0688
vn 0.1911 0.0564 0.9800
vn -0.0561 0.1411 0.9884
vn 0.0039 -0.9928 -0.1195
vn 0.0240 0.1126 0.9933
vn 0.5392 -0.8408 0.0482
vn -0.9938 -0.1083 -0.0269
vn 0.0594 0.0223 0.9980
vn -0.4551 -0.8780 -0.1485
vn 0.0374 -0.1305 -0.9907
vn -0.9964 0.0700 -0.0483
vn 0.3839 0.9181 0.0988
vn -0.0364 -0.1757 -0.9838
vn 0.0566 -0.0561 -0.9968
vn -0.0831 -0.1473 -0.9856
vn 0.0632 -0.9972 -0.0403
vn -0.0880 -0.9948 -0.0521
vn 0.9243 -0.3300 -0.1920
vn -0.0763 -0.0071 -0.9971
vn 0.0109 0.0118 -0.9999
vn -0.5950 -0.8037 0.0027
vn -0.9943 0.0640 0.0850
vn 0.9795 -0.1478 -0.1370
vn -0.9998 0.0143 -0.0128
vn 0.1069 -0.1020 0.9890
vn -0.0992 0.9849 0.1418
vn 0.9440 -0.3042 0.1280
vn 0.0690 -0.1099 0.9915
vn -0.0565 -0.0882 0.9945
vn -0.9994 -0.0339 0.0040
vn 0.0643 0.0499 0.9967
vn -0.1881 -0.1260 0.9740
vn 0.0862 0.0327 0.9957
vn 0.0540 0.0430 0.9976
vn 0.0741 0.9970 -0.0225
vn 0.5704 0.8149 -0.1023
vn -0.0628 -0.0442 -0.9970
vn -0.0422 -0.1048 -0.9936
vn -0.0773 0.0785 -0.9939
vn -0.9987 -0.0072 0.0502
vn 0.9719 0.1894 -0.1395
vn 0.0983 -0.0060 -0.9951
vn -0.2156 0.1797 -0.9598
vn 0.0634 0.0246 -0.9977
vn 0.0788 -0.0091 0.9969
vn -0.9990 -0.0288 -0.0346
vn -0.0106 -0.0335 0.9994
vn 0.1329 -0.9799 -0.1486
vn -0.0255 -0.0314 0.9992
vn 0.9897 0.0451 0.1357
vn 0.0717 -0.1277 -0.9892
vn 0.0038 0.1425 -0.9898
vn 0.7386 0.6725 -0.0472
vn -0.9958 -0.0677 -0.0609
vn -0.1024 0.0434 -0.9938
vn 0.0256 -0.0085 -0.9996
vn -0.0887 -0.9947 -0.0515
vn -0.0494 0.0132 -0.9987
vn -0.8438 0.5095 0.1684
vn 0.9804 0.1471 0.1310
vn 0.0029 0.9965 -0.0838
vn -0.0087 -0.0561 0.9984
vn -0.0583 -0.0790 0.9952
vn 0.0988 0.0648 0.9930
vn -0.0741 0.9955 0.0584
vn 0.0376 0.0566 0.9977
vn 0.4722 0.8813 0.0202
vn -0.0690 -0.1074 -0.9918
vn 0.0534 -0.2077 -0.9767
vn -0.9993 0.0294 -0.0209
vn -0.9887 -0.1143 -0.0965
vn 0.5397 -0.8418 0.0115
vn 0.0444 -0.0800 0.9958
vn 0.5328 -0.8385 0.1140
vn 0.0096 0.1553 -0.9878
vn -0.0558 -0.9965 0.0618
vn -0.0158 -0.9989 0.0436
vn 0.0249 -0.9967 0.0770
vn 0.0072 -0.1245 0.9922
vn -0.0697 0.1426 -0.9873
vn 0.0160 -0.9963 0.0839
vn -0.9909 0.1032 0.0864
vn 0.5937 0.8032 -0.0490
vn 0.5808 0.8121 -0.0558
vn -0.1001 0.9950 0.0017
vn -0.0474 -0.1048 -0.9934
vn 0.0371 0.9941 0.1023
vn 0.0946 0.9948 0.0364
vn -0.0624 0.9960 0.0634
vn -0.1106 -0.0632 -0.9919
vn 0.0602 -0.2030 -0.9773
vn -0.0859 -0.0439 -0.9953
vn 0.0420 0.9987 -0.0275
vn -0.9938 -0.0621 -0.0926
vn 0.0141 -0.0911 0.9957
vn -0.0724 -0.1545 0.9853
vn -0.1316 -0.0263 0.9910
vn -0.0462 -0.0202 0.9987
vn 0.1877 -0.9703 0.1529
vn 0.0462 -0.9987 0.0193
vn 0.4420 -0.8927 -0.0875
vn -0.0188 -0.7803 -0.6251
vn 0.1639 0.0003 0.9865
vn 0.0367 0.0413 0.9985
vn -0.1076 -0.0520 0.9928
vn -0.1142 -0.0898 0.9894
vn 0.9900 -0.1003 -0.0990
vn -0.0435 0.1241 -0.9913
vn -0.0612 0.0824 -0.9947
vn -0.0951 0.0881 -0.9916
vn 0.0490 0.1417 -0.9887
vn -0.0334 0.0346 -0.9988
vn 0.0088 -0.9968 0.0799
vn 0.0652 0.0342 -0.9973
vn 0.9819 -0.1732 -0.0773
vn 0.0351 -0.0260 0.9990
usemtl Main
s off
f 16//1 35//1 15//1
f 19//2 15//2 18//2
f 38//3 17//3 20//3
f 19//4 22//4 27//4
f 23//5 21//5 20//5
f 19//6 27//6 20//6
f 21//7 23//7 26//7
f 20//8 21//8 39//8
f 30//9 32//9 34//9
f 33//10 32//10 30//10
f 33//11 34//11 32//11
f 40//12 36//12 35//12
f 36//13 40//13 37//13
f 37//14 18//14 36//14
f 39//15 38//15 20//15
f 21//16 43//16 39//16
f 43//17 41//17 39//17
f 41//18 29//18 28//18
f 40//19 38//19 39//19
f 29//20 33//20 30//20
f 16//21 38//21 35//21
f 23//22 56//22 26//22
f 23//23 28//23 58//23
f 56//24 23//24 58//24
f 60//25 72//25 56//25
f 73//26 60//26 66//26
f 56//27 62//27 60//27
f 31//28 59//28 58//28
f 31//29 58//29 28//29
f 68//30 66//30 67//30
f 64//31 69//31 62//31
f 69//32 67//32 62//32
f 64//33 67//33 69//33
f 41//34 43//34 59//34
f 63//35 58//35 59//35
f 73//36 72//36 60//36
f 74//37 72//37 61//37
f 64//38 63//38 74//38
f 74//39 63//39 72//39
f 44//40 59//40 31//40
f 65//41 31//41 34//41
f 68//42 61//42 66//42
f 68//43 74//43 61//43
f 64//44 74//44 70//44
f 64//45 70//45 67//45
f 37//46 22//46 19//46
f 56//47 43//47 26//47
f 63//48 62//48 58//48
f 15//49 17//49 16//49
f 15//50 36//50 18//50
f 17//51 38//51 16//51
f 15//52 20//52 17//52
f 15//53 19//53 20//53
f 22//54 28//54 27//54
f 20//55 27//55 23//55
f 23//56 27//56 28//56
f 30//57 31//57 28//57
f 30//58 34//58 31//58
f 28//59 29//59 30//59
f 15//60 35//60 36//60
f 38//61 40//61 35//61
f 22//62 37//62 40//62
f 41//63 22//63 40//63
f 41//64 28//64 22//64
f 21//65 26//65 43//65
f 39//66 41//66 40//66
f 44//67 29//67 41//67
f 44//68 33//68 29//68
f 56//69 58//69 62//69
f 33//70 65//70 34//70
f 60//71 67//71 66//71
f 67//72 70//72 68//72
f 62//73 67//73 60//73
f 43//74 56//74 72//74
f 59//75 44//75 41//75
f 72//76 63//76 59//76
f 73//77 61//77 72//77
f 62//78 63//78 64//78
f 72//79 59//79 43//79
f 44//80 65//80 33//80
f 65//81 44//81 31//81
f 68//82 70//82 74//82
f 18//83 37//83 19//83
f 73//84 66//84 61//84
usemtl Accent
f 3//85 6//85 5//85
f 5//86 4//86 3//86
f 5//87 8//87 4//87
f 25//88 7//88 8//88
f 13//89 8//89 5//89
f 7//90 4//90 8//90
f 2//91 12//91 3//91
f 11//92 12//92 10//92
f 11//93 13//93 12//93
f 24//94 55//94 25//94
f 42//95 57//95 55//95
f 46//96 45//96 47//96
f 55//97 51//97 7//97
f 46//98 48//98 52//98
f 53//99 11//99 52//99
f 53//100 52//100 49//100
f 51//101 53//101 49//101
f 54//102 53//102 51//102
f 55//103 57//103 51//103
f 71//104 42//104 14//104
f 71//105 54//105 57//105
f 71//106 57//106 42//106
f 1//107 9//107 2//107
f 2//108 9//108 12//108
f 3//109 12//109 6//109
f 10//110 12//110 9//110
f 12//111 13//111 6//111
f 6//112 13//112 5//112
f 13//113 24//113 8//113
f 14//114 24//114 13//114
f 14//115 13//115 11//115
f 14//116 42//116 24//116
f 8//117 24//117 25//117
f 24//118 42//118 55//118
f 2//119 47//119 45//119
f 1//120 2//120 45//120
f 2//121 3//121 47//121
f 3//122 4//122 47//122
f 49//123 52//123 48//123
f 47//124 49//124 48//124
f 47//125 48//125 46//125
f 50//126 51//126 49//126
f 4//127 50//127 49//127
f 4//128 7//128 50//128
f 7//129 51//129 50//129
f 4//130 49//130 47//130
f 45//131 46//131 1//131
f 10//132 9//132 46//132
f 52//133 10//133 46//133
f 52//134 11//134 10//134
f 53//135 14//135 11//135
f 53//136 54//136 14//136
f 57//137 54//137 51//137
f 54//138 71//138 14//138
f 9//139 1//139 46//139
f 25//140 55//140 7//140
