# Blender v2.82 (sub 7) OBJ File: 'weapons3d.blend'
# www.blender.org
mtllib 3d_hammer.mtl
o Hammer_Curve.008
v 0.152655 0.236470 0.057145
v 0.201821 0.201619 0.058266
v 0.175246 0.233811 -0.070193
v 0.138303 0.162119 0.063281
v 0.537544 -0.013884 0.054965
v 0.541575 -0.111990 0.046029
v 0.535542 -0.117990 -0.057537
v 0.445276 -0.009316 0.049078
v 0.319245 -0.018745 0.042677
v 0.433350 -0.017037 -0.050912
v 0.170066 0.017768 0.060754
v 0.330931 -0.023301 -0.044655
v 0.201594 -0.015352 0.043295
v 0.155014 -0.063435 -0.066672
v 0.204246 0.193752 -0.072848
v 0.179795 0.098645 0.053845
v 0.115410 0.160837 -0.083047
v 0.539266 -0.025365 -0.050816
v 0.177694 0.073535 -0.061419
v 0.201098 -0.010248 -0.060225
v 0.094883 -0.059740 -0.061417
v 0.203271 -0.114264 -0.049799
v 0.037696 0.237669 0.061908
v 0.015470 0.195193 0.069325
v -0.057628 0.164831 0.055737
v -0.133931 0.118039 0.074009
v -0.111952 0.227143 0.056122
v -0.182648 0.230725 0.059271
v -0.215504 0.182702 0.076429
v -0.197518 0.127489 -0.072329
v 0.085457 0.105807 0.050222
v -0.024802 0.074772 0.057276
v 0.098369 -0.000036 0.071105
v 0.033827 -0.045504 0.074764
v -0.088084 -0.047119 0.052221
v -0.181177 0.028834 0.059953
v -0.105356 0.038110 0.075405
v -0.161739 -0.072223 0.068059
v -0.183557 -0.019260 0.049324
v -0.180083 -0.076667 -0.052718
v -0.267568 -0.019663 -0.054845
v -0.275945 -0.024819 0.047011
v -0.021088 0.134824 -0.069165
v 0.041858 0.236344 -0.066503
v -0.125451 0.137130 -0.061152
v -0.158316 0.241362 -0.074007
v -0.200465 0.209466 -0.067534
v 0.027021 0.029640 -0.064120
v -0.090151 0.015989 -0.077594
v -0.008867 -0.014638 -0.071142
v -0.046654 -0.105773 -0.059565
v -0.160983 -0.055540 -0.063158
v -0.191646 -0.016676 -0.050698
v 0.430413 -0.119007 0.049036
v 0.348151 -0.108416 0.039539
v 0.208651 -0.113575 0.043155
v 0.196012 -0.054526 0.042296
v 0.159195 -0.079832 0.063576
v 0.170759 -0.188351 0.056506
v 0.197720 -0.297897 0.062644
v 0.175664 -0.371761 0.061038
v 0.107388 -0.293466 0.061625
v 0.084464 -0.379145 0.074151
v 0.432598 -0.112239 -0.011728
v 0.337313 -0.111708 -0.047434
v 0.170681 -0.163850 -0.071431
v 0.185991 -0.219853 -0.069873
v 0.133061 -0.274744 -0.062713
v 0.195641 -0.324686 -0.064965
v 0.174740 -0.356927 -0.059787
v 0.112835 -0.165879 0.062578
v 0.046100 -0.166152 0.050379
v -0.075181 -0.139417 0.064309
v -0.019924 -0.257914 0.067862
v -0.108057 -0.255658 0.066453
v -0.180395 -0.116041 -0.011532
v -0.185055 -0.120832 0.048847
v -0.186927 -0.118400 -0.050718
v -0.266514 -0.119223 0.049317
v -0.267828 -0.111910 -0.054406
v -0.193858 -0.213611 0.067049
v -0.195502 -0.284360 0.063870
v -0.027696 -0.369963 0.063955
v -0.032470 -0.319901 0.062588
v -0.025231 -0.364595 -0.063914
v -0.100903 -0.373067 -0.074674
v -0.206572 -0.321794 0.057580
v -0.170222 -0.367991 0.058731
v 0.069673 -0.159043 -0.075591
v -0.088188 -0.155187 -0.069489
v 0.054267 -0.253536 -0.074041
v -0.010193 -0.277118 -0.061725
v -0.093604 -0.276395 -0.069503
v -0.183832 -0.164259 -0.080349
v -0.189115 -0.243447 -0.063441
v 0.063420 -0.370304 -0.069327
v -0.199389 -0.358869 -0.074171
vn 0.9991 0.0400 0.0119
vn -0.0469 -0.0500 0.9976
vn 0.0043 -0.0336 0.9994
vn 0.0291 0.9984 0.0491
vn 0.0780 0.9913 -0.1063
vn 0.1045 0.9938 -0.0379
vn -0.9900 0.1408 0.0117
vn 0.1089 -0.0969 -0.9893
vn -0.0418 0.9980 0.0471
vn -0.9966 0.0024 -0.0818
vn 0.0326 -0.0893 0.9955
vn -0.1128 0.0149 0.9935
vn -0.0633 0.0082 0.9980
vn 0.0378 -0.9987 0.0331
vn -0.1115 -0.0094 0.9937
vn -0.0293 -0.9978 0.0595
vn 0.0066 0.0721 -0.9974
vn 0.0170 0.0326 -0.9993
vn 0.0190 -0.9998 0.0063
vn -0.0248 -0.0043 0.9997
vn -0.0199 -0.9995 -0.0240
vn -0.0062 -0.0468 -0.9989
vn 0.0452 -0.0049 -0.9990
vn 0.0259 0.0004 0.9997
vn 0.0528 0.0438 -0.9976
vn -0.0608 0.9977 0.0307
vn 0.0597 -0.9923 -0.1084
vn 0.9978 -0.0361 -0.0560
vn -0.0710 0.9951 -0.0684
vn -0.0646 0.9961 -0.0606
vn -0.9978 -0.0270 -0.0611
vn 0.9788 0.1911 -0.0742
vn -0.1139 -0.9869 -0.1140
vn -0.0207 -0.9990 0.0404
vn -0.0285 -0.9977 0.0612
vn -0.0504 0.0145 -0.9986
vn -0.0626 0.0268 -0.9977
vn -0.9764 -0.2081 0.0581
vn 0.9864 -0.1629 -0.0225
vn 0.9990 -0.0149 0.0424
vn -0.0766 -0.9947 -0.0692
vn 0.0063 0.0250 0.9997
vn -0.9950 -0.0993 0.0056
vn 0.0546 0.9950 -0.0833
vn 0.1256 0.0694 0.9896
vn 0.9927 -0.1119 -0.0459
vn 0.8092 0.5872 -0.0203
vn 0.9771 -0.2103 0.0307
vn 0.9866 -0.1629 -0.0127
vn -0.0838 0.0520 -0.9951
vn 0.0676 0.0691 0.9953
vn -0.0697 0.9975 -0.0126
vn -0.2978 0.3133 0.9018
vn 0.0544 0.9945 0.0893
vn 0.1552 0.1293 0.9794
vn -0.0514 -0.1796 0.9824
vn 0.0080 0.1945 0.9809
vn 0.1826 0.0833 0.9797
vn 0.0798 -0.0332 0.9963
vn -0.1822 0.1026 0.9779
vn 0.1838 0.0828 0.9795
vn -0.0664 -0.1209 0.9904
vn 0.1724 0.1117 0.9787
vn 0.0187 0.9998 -0.0097
vn -0.0481 -0.1372 -0.9894
vn 0.0730 -0.1904 -0.9790
vn 0.0219 -0.0136 -0.9997
vn 0.1192 0.0606 -0.9910
vn 0.1607 0.0262 -0.9866
vn 0.0270 -0.1370 -0.9902
vn 0.0867 0.0203 -0.9960
vn -0.2543 0.0569 -0.9655
vn -0.0736 0.1130 -0.9909
vn 0.9941 0.1071 -0.0184
vn 0.9630 0.2647 0.0501
vn -0.0086 0.0538 0.9985
vn 0.9953 0.0900 -0.0351
vn -0.1071 -0.0896 -0.9902
vn 0.0342 -0.1947 0.9803
vn 0.0704 -0.1907 0.9791
vn 0.1587 0.1500 0.9759
vn 0.0998 -0.0117 0.9949
vn 0.0321 -0.0144 0.9994
vn 0.0140 0.0145 0.9998
vn -0.0149 -0.0445 0.9989
vn 0.0141 0.0286 0.9995
vn -0.1744 -0.1128 0.9782
vn -0.0149 -0.9994 0.0303
vn -0.0762 0.1598 -0.9842
vn -0.0345 0.1498 -0.9881
vn 0.0374 -0.0225 -0.9990
vn -0.0389 -0.0101 -0.9992
vn 0.1120 0.0084 -0.9937
vn -0.9696 0.2206 -0.1061
vn 0.0016 -0.4664 -0.8846
vn 0.0845 0.0074 -0.9964
vn 0.0929 0.0089 -0.9956
vn -0.9921 0.0958 -0.0811
vn -0.9419 0.3338 0.0370
vn 0.0403 -0.0168 -0.9990
vn -0.9600 0.2770 0.0409
vn -0.9988 0.0251 -0.0420
vn 0.5749 0.8138 0.0850
vn 0.1207 -0.0683 0.9903
vn 0.1397 0.0131 0.9901
vn -0.0235 0.1921 -0.9811
vn 0.0705 0.1167 -0.9907
vn 0.1599 -0.1284 -0.9787
vn 0.9766 -0.2130 0.0286
vn -0.0103 -0.2167 0.9762
vn 0.0425 0.1503 0.9877
vn -0.0360 -0.0375 0.9986
vn 0.1944 0.2094 0.9583
vn -0.8218 0.5694 0.0200
vn 0.0516 0.1514 0.9871
vn -0.9936 -0.0293 -0.1092
vn -0.1651 -0.0434 0.9853
vn -0.0338 0.1277 0.9912
vn 0.2985 -0.1937 0.9345
vn -0.1823 0.0539 0.9818
vn 0.1003 -0.1322 0.9861
vn -0.9761 -0.2136 -0.0387
vn -0.1933 -0.0520 0.9798
vn -0.1571 -0.2888 0.9444
vn -0.1195 0.1000 -0.9878
vn 0.0344 -0.1116 -0.9932
vn 0.0211 0.9946 0.1011
vn -0.0748 0.0724 -0.9946
vn -0.6074 0.7930 -0.0476
vn 0.1447 0.0630 -0.9875
vn -0.0845 -0.0863 -0.9927
vn 0.1556 -0.0184 -0.9876
vn -0.9811 -0.1911 -0.0300
vn -0.9801 -0.1969 -0.0258
vn 0.9687 0.2416 0.0565
vn -0.0122 -0.0181 0.9998
vn 0.1329 0.1085 0.9852
vn -0.0788 -0.0539 -0.9954
vn 0.8313 -0.5508 -0.0740
vn -0.1795 0.0853 0.9800
vn 0.1336 0.0919 0.9868
vn -0.1726 0.3028 0.9373
vn 0.0463 -0.0094 0.9989
vn -0.0154 0.0228 0.9996
vn -0.0180 -0.0811 0.9965
vn -0.9698 0.2195 0.1064
vn -0.0928 -0.0283 0.9953
vn 0.0827 0.1225 0.9890
vn 0.0627 -0.9905 -0.1221
vn -0.3530 -0.0081 0.9356
vn 0.1167 -0.9924 -0.0394
vn -0.0776 -0.9960 -0.0433
vn -0.0375 -0.0726 0.9967
vn -0.0070 -0.0683 0.9976
vn -0.1030 0.2784 -0.9549
vn -0.1332 -0.1476 -0.9800
vn 0.0926 -0.0217 -0.9955
vn -0.0393 -0.1601 -0.9863
vn 0.0864 0.1259 -0.9883
vn 0.0991 0.1351 -0.9859
vn -0.9972 0.0560 -0.0491
vn -0.1302 -0.1987 -0.9714
vn -0.9931 0.1131 -0.0297
vn 0.1256 -0.9889 -0.0794
vn -0.0081 0.0749 -0.9972
vn -0.0673 -0.9964 -0.0515
vn -0.0587 0.0351 -0.9977
vn -0.0438 0.0567 -0.9974
vn 0.1360 0.0427 -0.9898
vn 0.0082 0.0918 -0.9957
vn -0.1428 -0.9891 -0.0366
vn -0.7808 -0.6112 0.1294
vn 0.0323 -0.1391 -0.9897
vn 0.0096 0.9998 -0.0192
vn 0.0313 0.0762 0.9966
vn -0.0232 0.1908 0.9814
vn 0.0826 -0.0560 0.9950
vn 0.0437 0.0541 -0.9976
vn 0.0841 -0.2082 -0.9745
vn 0.9929 -0.1188 0.0078
vn 0.9878 0.1528 0.0286
vn 0.9570 -0.2867 0.0446
usemtl Main
s off
f 6//1 18//1 5//1
f 8//2 9//2 55//2
f 9//3 13//3 55//3
f 9//4 20//4 13//4
f 18//5 10//5 5//5
f 12//6 20//6 9//6
f 20//7 57//7 13//7
f 22//8 20//8 12//8
f 53//9 41//9 42//9
f 80//10 42//10 41//10
f 5//11 54//11 6//11
f 8//12 55//12 54//12
f 8//13 54//13 5//13
f 56//14 65//14 55//14
f 13//15 57//15 56//15
f 7//16 6//16 64//16
f 7//17 10//17 18//17
f 22//18 12//18 65//18
f 56//19 22//19 65//19
f 39//20 42//20 77//20
f 79//21 78//21 77//21
f 78//22 41//22 40//22
f 80//23 41//23 78//23
f 13//24 56//24 55//24
f 41//25 53//25 40//25
f 39//26 53//26 42//26
f 64//27 6//27 54//27
f 6//28 7//28 18//28
f 8//29 10//29 9//29
f 10//30 12//30 9//30
f 20//31 22//31 57//31
f 39//32 40//32 53//32
f 55//33 64//33 54//33
f 65//34 64//34 55//34
f 65//35 7//35 64//35
f 7//36 65//36 10//36
f 10//37 65//37 12//37
f 22//38 56//38 57//38
f 77//39 78//39 40//39
f 39//40 77//40 40//40
f 79//41 80//41 78//41
f 77//42 42//42 79//42
f 42//43 80//43 79//43
f 5//44 10//44 8//44
usemtl Accent
f 33//45 11//45 16//45
f 11//46 58//46 14//46
f 15//47 3//47 2//47
f 2//48 16//48 15//48
f 11//49 14//49 19//49
f 14//50 21//50 19//50
f 1//51 24//51 4//51
f 44//52 27//52 23//52
f 23//53 25//53 24//53
f 46//54 28//54 27//54
f 27//55 26//55 25//55
f 4//56 31//56 16//56
f 31//57 32//57 33//57
f 25//58 37//58 32//58
f 33//59 34//59 58//59
f 35//60 73//60 34//60
f 26//61 37//61 25//61
f 26//62 29//62 36//62
f 38//63 35//63 36//63
f 44//64 23//64 3//64
f 47//65 46//65 45//65
f 48//66 17//66 19//66
f 48//67 19//67 21//67
f 50//68 48//68 21//68
f 50//69 43//69 48//69
f 49//70 50//70 51//70
f 50//71 49//71 43//71
f 52//72 45//72 49//72
f 49//73 45//73 43//73
f 59//74 14//74 58//74
f 67//75 66//75 59//75
f 59//76 62//76 60//76
f 69//77 67//77 60//77
f 70//78 68//78 69//78
f 34//79 72//79 58//79
f 34//80 73//80 72//80
f 35//81 38//81 73//81
f 71//82 62//82 59//82
f 38//83 81//83 73//83
f 73//84 81//84 75//84
f 81//85 82//85 75//85
f 82//86 83//86 84//86
f 87//87 88//87 82//87
f 86//88 83//88 88//88
f 21//89 14//89 89//89
f 89//90 90//90 21//90
f 67//91 91//91 89//91
f 90//92 89//92 91//92
f 92//93 94//93 90//93
f 94//94 76//94 52//94
f 92//95 91//95 68//95
f 96//96 68//96 70//96
f 85//97 93//97 92//97
f 95//98 97//98 87//98
f 52//99 76//99 38//99
f 67//100 89//100 66//100
f 95//101 87//101 82//101
f 95//102 82//102 81//102
f 2//103 3//103 1//103
f 2//104 4//104 16//104
f 33//105 58//105 11//105
f 17//106 44//106 3//106
f 15//107 17//107 3//107
f 19//108 17//108 15//108
f 19//109 15//109 16//109
f 24//110 31//110 4//110
f 23//111 24//111 1//111
f 23//112 27//112 25//112
f 28//113 29//113 26//113
f 47//114 29//114 28//114
f 27//115 28//115 26//115
f 29//116 47//116 30//116
f 24//117 25//117 32//117
f 32//118 34//118 33//118
f 32//119 37//119 35//119
f 32//120 35//120 34//120
f 31//121 24//121 32//121
f 30//122 36//122 29//122
f 26//123 36//123 37//123
f 37//124 36//124 35//124
f 43//125 44//125 17//125
f 45//126 46//126 44//126
f 44//127 46//127 27//127
f 43//128 45//128 44//128
f 46//129 47//129 28//129
f 45//130 30//130 47//130
f 48//131 43//131 17//131
f 45//132 52//132 30//132
f 36//133 52//133 38//133
f 30//134 52//134 36//134
f 60//135 67//135 59//135
f 60//136 62//136 61//136
f 62//137 63//137 61//137
f 69//138 68//138 67//138
f 69//139 61//139 70//139
f 58//140 72//140 71//140
f 73//141 74//141 72//141
f 71//142 72//142 74//142
f 74//143 62//143 71//143
f 74//144 73//144 75//144
f 74//145 75//145 84//145
f 76//146 81//146 38//146
f 63//147 74//147 83//147
f 62//148 74//148 63//148
f 63//149 70//149 61//149
f 74//150 84//150 83//150
f 86//151 85//151 83//151
f 83//152 85//152 63//152
f 82//153 88//153 83//153
f 75//154 82//154 84//154
f 21//155 90//155 51//155
f 92//156 90//156 91//156
f 93//157 94//157 92//157
f 52//158 49//158 51//158
f 51//159 90//159 52//159
f 90//160 94//160 52//160
f 94//161 95//161 81//161
f 93//162 95//162 94//162
f 76//163 94//163 81//163
f 63//164 96//164 70//164
f 96//165 92//165 68//165
f 63//166 85//166 96//166
f 85//167 92//167 96//167
f 86//168 95//168 93//168
f 86//169 93//169 85//169
f 97//170 95//170 86//170
f 88//171 97//171 86//171
f 97//172 88//172 87//172
f 51//173 50//173 21//173
f 1//174 3//174 23//174
f 1//175 4//175 2//175
f 31//176 33//176 16//176
f 58//177 71//177 59//177
f 89//178 14//178 66//178
f 68//179 91//179 67//179
f 11//180 19//180 16//180
f 59//181 66//181 14//181
f 60//182 61//182 69//182
