# Blender v2.82 (sub 7) OBJ File: 'disk_fixed_mesh.blend'
# www.blender.org
mtllib disk_fixed_mesh.mtl
o Cylinder_Cylinder.002
v -0.688128 0.200977 0.103145
v -0.545661 0.184513 0.079864
v -0.394364 0.046149 0.057365
v -0.608195 0.203419 0.085492
v -0.561370 0.219620 0.096021
v -0.469699 0.165873 0.067655
v -0.494388 0.154472 0.060742
v -0.578537 -0.220243 -0.095448
v -0.499799 -0.156609 -0.063006
v -0.441498 -0.092890 -0.032778
v -0.386822 -0.042659 -0.043894
v -0.515017 -0.197832 -0.084359
v -0.532030 -0.176336 -0.075742
v -0.475302 -0.169547 -0.069576
v -0.577609 -0.208077 -0.115797
v -0.486965 -0.170588 -0.102667
v -0.367129 0.020496 -0.026383
v -0.328271 0.023733 0.038420
v -0.249809 0.013648 0.046826
v -0.242485 0.032361 0.030144
v -0.175848 0.040710 -0.006965
v -0.267095 0.045800 -0.002911
v -0.245713 0.015889 -0.025869
v -0.363648 -0.024875 -0.042649
v -0.247150 -0.019889 -0.040456
v -0.687194 0.207593 0.108071
v -0.611840 0.214081 0.125223
v -0.560140 0.205029 0.115855
v -0.560745 0.179978 0.102412
v -0.610193 0.187538 0.110773
v -0.521916 0.189973 0.112476
v -0.521257 0.156922 0.094059
v -0.488067 0.171671 0.102059
v -0.461358 0.147490 0.090435
v -0.473466 0.124162 0.075992
v -0.438257 0.073437 0.050643
v -0.416704 0.085869 0.064182
v -0.407182 0.079025 0.053618
v -0.434909 0.119331 0.073592
v -0.431177 0.046811 0.038069
v -0.389252 0.011915 0.034097
v -0.419799 0.029447 0.032160
v -0.645448 0.226508 0.100228
v -0.596103 0.224923 0.094165
v -0.430613 0.132090 0.048668
v -0.433748 0.075069 0.023356
v -0.409225 0.090384 0.030953
v -0.421032 0.047150 0.006864
v -0.367120 0.045719 -0.002348
v -0.513244 0.195910 0.083750
v -0.691575 -0.204040 -0.099714
v -0.629298 -0.229176 -0.099195
v -0.591396 -0.198489 -0.082915
v -0.632563 -0.201991 -0.086965
v -0.430804 -0.059848 -0.041012
v -0.372293 -0.058658 0.002279
v -0.403612 -0.090975 -0.023996
v -0.391641 -0.061587 -0.007657
v -0.474233 -0.131820 -0.051218
v -0.423377 -0.110141 -0.042878
v -0.444242 -0.144387 -0.057846
v -0.690550 -0.199430 -0.107074
v -0.612842 -0.185858 -0.114513
v -0.549899 -0.173755 -0.104001
v -0.579720 -0.185554 -0.105022
v -0.477474 -0.127610 -0.077384
v -0.423330 0.002209 -0.015897
v -0.444789 -0.079729 -0.056994
v -0.432696 -0.118284 -0.077204
v -0.276284 0.022645 0.038590
v -0.204891 0.017412 0.030548
v -0.215864 -0.018008 0.020506
v -0.177776 0.010433 0.039185
v -0.149531 0.009031 0.027524
v -0.108860 0.007362 0.028908
v -0.087463 0.008924 0.017916
v -0.047096 0.004827 0.017321
v -0.321991 0.042932 -0.001591
v -0.335847 0.016611 -0.025495
v -0.296809 0.009171 -0.022460
v -0.274450 0.045686 -0.019129
v -0.220686 0.036207 -0.006436
v -0.206708 0.019130 -0.025122
v -0.045922 0.019098 -0.005133
v -0.093429 0.022056 -0.007942
v -0.167804 -0.008587 -0.033800
v -0.331349 -0.023301 0.026397
v -0.312536 -0.045053 0.000348
v -0.256746 -0.045532 0.005355
v -0.222877 -0.044926 0.009202
v -0.094926 -0.023915 0.006599
v -0.188198 -0.029257 -0.013306
v -0.277119 -0.020730 -0.048595
v -0.048498 -0.008143 -0.021117
v -0.362942 0.028226 0.037040
v -0.361278 -0.044314 0.002790
v -0.279746 -0.042467 0.011860
v -0.170011 -0.030896 0.012259
v -0.137442 -0.030293 0.016913
v -0.049846 -0.020125 0.007869
v -0.129099 -0.010165 -0.035477
v -0.088101 -0.004470 -0.017830
v -0.458095 0.114726 0.045066
v -0.392117 0.071067 0.003424
v -0.615320 -0.215464 -0.122740
v -0.539458 -0.199897 -0.116230
v -0.515106 -0.159306 -0.091576
v -0.423012 -0.026968 -0.031924
v -0.421768 -0.052494 -0.008172
v -0.408887 -0.076868 -0.055166
v -0.454452 -0.141696 -0.086115
v -0.319695 -0.024482 -0.037238
v -0.215309 -0.012819 -0.035206
v -0.150095 0.032042 -0.007581
vn -0.1553 -0.4798 0.8636
vn 0.2301 0.8766 0.4226
vn 0.0763 -0.4729 0.8778
vn 0.0761 -0.4731 0.8777
vn -0.2104 0.7327 0.6472
vn 0.0057 -0.4867 0.8736
vn -0.1000 -0.4859 0.8683
vn 0.2324 -0.5228 0.8202
vn -0.4639 -0.0803 0.8822
vn -0.8482 -0.4461 -0.2855
vn 0.3535 -0.6069 0.7118
vn -0.1069 -0.4682 0.8772
vn -0.0293 -0.5151 0.8566
vn -0.3974 0.5835 -0.7082
vn 0.1170 0.4579 -0.8813
vn -0.1396 0.4082 -0.9022
vn 0.9005 0.3552 0.2509
vn -0.2444 0.7158 -0.6541
vn -0.3384 0.6492 -0.6812
vn 0.0625 0.4151 -0.9076
vn -0.1399 0.8478 0.5115
vn 0.0680 -0.4676 0.8813
vn -0.7277 0.6574 0.1959
vn 0.0099 -0.4378 0.8990
vn -0.1607 -0.4836 0.8604
vn -0.3518 -0.4537 0.8188
vn 0.3621 -0.3094 0.8793
vn -0.2936 -0.4165 0.8604
vn 0.0274 -0.4143 0.9097
vn -0.0239 -0.3882 0.9213
vn -0.1392 0.2759 -0.9510
vn 0.2534 -0.8353 -0.4879
vn -0.1007 0.4217 -0.9011
vn -0.6782 0.6709 0.3000
vn -0.0146 0.5094 -0.8604
vn -0.9598 0.1647 0.2272
vn -0.0108 0.6311 -0.7756
vn -0.1941 0.3178 -0.9281
vn -0.0842 0.4219 -0.9027
vn -0.4656 0.8049 0.3680
vn -0.0999 0.5596 -0.8227
vn -0.1226 0.5232 -0.8434
vn 0.1326 0.8528 0.5052
vn 0.2616 0.8020 0.5371
vn 0.3154 -0.4757 0.8211
vn -0.3366 -0.1589 0.9282
vn 0.0547 0.6888 -0.7229
vn 0.1010 0.6392 -0.7624
vn 0.1762 0.6093 -0.7731
vn -0.0518 0.9985 0.0165
vn -0.3458 0.2931 -0.8914
vn 0.6517 0.6965 -0.3004
vn 0.2137 0.9501 0.2272
vn 0.1448 0.4912 -0.8589
vn -0.0792 0.7057 -0.7041
vn 0.7278 -0.5440 -0.4175
vn 0.2619 -0.9332 -0.2461
vn 0.0553 -0.9350 -0.3504
vn 0.2316 0.3867 -0.8926
vn 0.1492 -0.8758 -0.4590
vn -0.0069 0.3027 -0.9531
vn -0.4872 0.3704 -0.7908
vn -0.0061 0.6536 -0.7569
vn -0.0463 0.3407 -0.9390
vn -0.9964 -0.0168 0.0827
vn -0.4066 -0.4918 0.7699
vn -0.1298 -0.2953 0.9465
vn -0.0439 -0.2728 0.9611
vn 0.2741 -0.4745 0.8365
vn 0.4444 -0.3805 0.8110
vn 0.0851 0.5138 -0.8537
vn 0.0821 0.4986 -0.8629
vn 0.4829 0.8172 0.3147
vn 0.7081 0.6533 0.2680
vn -0.6145 -0.6495 -0.4478
vn -0.7611 -0.6205 -0.1890
vn 0.0662 -0.3293 0.9419
vn 0.7715 0.6027 0.2039
vn -0.8787 -0.4454 -0.1719
vn 0.8629 0.3738 0.3401
vn 0.7328 0.6324 0.2509
vn -0.9693 -0.1771 -0.1708
vn 0.7101 0.6275 0.3194
vn -0.3124 -0.7849 -0.5351
vn -0.1312 0.8936 0.4294
vn 0.9356 -0.2342 -0.2643
vn 0.8030 -0.4801 -0.3532
vn 0.8705 -0.4765 -0.1233
vn -0.8466 0.4990 0.1851
vn -0.0369 0.9032 0.4276
vn -0.4171 0.6903 0.5912
vn 0.3495 0.8871 0.3015
vn 0.2832 0.8042 0.5226
vn 0.0292 0.8939 0.4473
vn 0.5830 -0.7356 -0.3451
vn -0.0336 -0.9195 -0.3916
vn -0.0537 -0.9292 -0.3656
vn 0.0881 -0.9220 -0.3770
vn 0.0858 -0.7429 -0.6639
vn 0.9945 -0.1042 -0.0142
vn 0.6028 0.7510 0.2696
vn -0.1770 -0.5716 0.8012
vn -0.0925 -0.8399 -0.5349
vn -0.5150 -0.7058 -0.4865
vn -0.0164 -0.4479 0.8939
vn 0.5250 0.7881 0.3214
vn -0.0123 -0.5217 0.8530
vn 0.0280 -0.2565 0.9661
vn -0.1978 -0.5446 0.8150
vn -0.4037 -0.5206 0.7523
vn 0.9023 0.3759 0.2112
vn 0.1594 -0.4185 0.8941
vn -0.3683 -0.5596 0.7424
vn -0.2604 -0.4681 0.8444
vn -0.2160 0.2533 -0.9430
vn -0.0975 0.4189 -0.9028
vn -0.2990 -0.8769 -0.3764
vn 0.0254 0.3616 -0.9320
vn -0.0574 0.4646 -0.8837
vn 0.0170 0.4913 -0.8708
vn 0.7018 0.5777 0.4167
vn -0.1188 0.3785 -0.9180
vn 0.0308 0.4041 -0.9142
vn -0.9221 -0.2414 -0.3024
vn -0.9979 0.0195 0.0623
vn 0.0355 0.2550 -0.9663
vn -0.3803 0.3358 -0.8617
vn -0.4438 0.4229 -0.7901
vn -0.0331 0.4056 -0.9135
vn 0.1873 -0.8931 -0.4089
vn -0.3577 0.8760 0.3236
vn -0.3650 0.8775 0.3110
vn 0.0218 -0.4894 0.8718
vn -0.0540 -0.4151 0.9082
vn -0.1775 -0.4214 0.8893
vn 0.0152 -0.4379 0.8989
vn -0.0132 -0.5155 0.8568
vn -0.9226 0.3427 0.1771
vn 0.3349 -0.8527 -0.4009
vn -0.3123 -0.4836 0.8177
vn -0.1463 -0.4345 0.8887
vn 0.0523 -0.4631 0.8848
vn 0.6663 -0.6802 -0.3054
vn -0.0906 -0.4315 0.8976
vn -0.0040 -0.4588 0.8885
vn 0.3582 -0.9084 -0.2158
vn -0.2844 -0.7454 -0.6029
vn 0.1264 0.2558 -0.9584
vn 0.2440 0.4370 -0.8657
vn -0.1194 0.3812 -0.9168
vn -0.1134 0.8906 0.4404
vn -0.1732 0.3129 -0.9339
vn -0.1339 0.3870 -0.9123
vn -0.3044 0.4560 -0.8363
vn -0.3239 0.3226 -0.8894
vn -0.0882 0.4406 -0.8933
vn 0.0079 0.4662 -0.8846
vn 0.7512 -0.5740 -0.3260
vn 0.1228 0.4603 -0.8792
vn -0.3756 -0.4027 0.8347
vn -0.0700 -0.2428 0.9676
vn 0.3448 -0.3534 0.8696
vn 0.2289 0.5963 0.7694
vn 0.1503 0.8950 0.4199
vn -0.0219 -0.3520 0.9357
vn 0.0398 0.8347 0.5493
vn 0.0742 0.6400 -0.7648
vn -0.0466 0.7198 -0.6926
vn -0.0821 0.8739 0.4792
vn 0.1596 0.4919 -0.8559
vn 0.0210 -0.7599 0.6497
vn 0.2043 -0.3810 0.9017
vn -0.0831 -0.5653 0.8207
vn 0.0527 -0.3983 0.9157
vn 0.2662 -0.4313 0.8620
vn 0.0307 -0.9959 -0.0857
vn 0.1132 0.3139 -0.9427
vn 0.1340 0.3206 -0.9377
vn -0.2617 0.5317 -0.8055
vn 0.0694 0.3742 -0.9247
vn 0.3355 -0.7805 -0.5275
vn 0.0014 0.3006 -0.9537
vn -0.1380 -0.8070 0.5742
vn 0.0008 -0.3260 0.9454
vn -0.0029 -0.5463 0.8376
vn 0.0690 0.3414 -0.9374
vn 0.1654 0.3666 -0.9155
vn 0.3188 0.3866 -0.8654
vn 0.0915 0.8048 0.5864
vn -0.2151 -0.8192 -0.5316
vn 0.0743 0.9292 0.3620
vn -0.5700 -0.7137 -0.4072
vn 0.6044 0.7731 0.1924
vn -0.8439 -0.4580 -0.2793
vn 0.8474 0.5013 0.1749
vn 0.3492 0.7650 0.5411
vn -0.1197 0.8832 0.4535
vn 0.1762 -0.8484 -0.4992
vn -0.5730 0.7858 0.2328
vn -0.9994 -0.0249 0.0255
vn 0.8526 -0.5011 -0.1483
vn -0.7897 0.4876 0.3723
vn 0.8886 -0.4377 -0.1374
vn -0.8767 0.3625 0.3161
vn 0.5240 -0.7758 -0.3516
vn 0.6159 -0.7638 -0.1930
vn 0.7092 -0.6668 -0.2290
vn 0.1026 0.9131 0.3947
vn 0.0481 0.8976 0.4382
vn 0.0166 0.8716 0.4900
vn 0.1494 0.8280 0.5404
vn 0.0250 0.9249 0.3793
vn 0.0930 0.8381 0.5375
vn 0.0680 -0.8697 -0.4889
vn -0.0286 -0.9123 -0.4086
vn -0.1852 -0.9618 -0.2017
vn 0.2414 -0.8312 -0.5009
vn 0.0698 -0.8766 -0.4761
vn -0.0159 -0.8090 -0.5876
vn 0.2662 -0.8021 -0.5345
vn 0.2926 -0.8032 -0.5189
vn -0.1235 -0.7593 -0.6389
vn 0.9952 -0.0976 0.0059
usemtl None
s off
f 26//1 30//1 27//1
f 28//2 44//2 27//2
f 29//3 28//3 27//3
f 30//4 29//4 27//4
f 26//5 27//5 43//5
f 31//6 32//6 33//6
f 29//7 32//7 31//7
f 41//8 95//8 3//8
f 40//9 3//9 38//9
f 103//10 36//10 35//10
f 37//11 40//11 38//11
f 29//12 31//12 28//12
f 32//13 35//13 34//13
f 1//14 26//14 43//14
f 2//15 44//15 5//15
f 45//16 46//16 103//16
f 37//17 47//17 45//17
f 104//18 46//18 47//18
f 67//19 49//19 17//19
f 103//20 7//20 6//20
f 51//21 54//21 62//21
f 8//22 13//22 53//22
f 59//23 66//23 9//23
f 14//24 59//24 9//24
f 109//25 58//25 41//25
f 58//26 56//26 41//26
f 56//27 96//27 41//27
f 109//28 41//28 42//28
f 61//29 60//29 59//29
f 12//30 13//30 8//30
f 63//31 105//31 62//31
f 15//32 8//32 105//32
f 106//33 15//33 65//33
f 66//34 107//34 9//34
f 111//35 16//35 66//35
f 108//36 55//36 109//36
f 110//37 68//37 55//37
f 24//38 11//38 17//38
f 69//39 111//39 66//39
f 13//40 107//40 64//40
f 16//41 106//41 107//41
f 66//42 16//42 107//42
f 19//43 22//43 70//43
f 74//44 21//44 73//44
f 98//45 74//45 73//45
f 72//46 73//46 71//46
f 78//47 17//47 49//47
f 79//48 17//48 78//48
f 79//49 78//49 80//49
f 22//50 81//50 78//50
f 80//51 78//51 81//51
f 23//52 81//52 22//52
f 82//53 22//53 20//53
f 114//54 86//54 21//54
f 21//55 83//55 82//55
f 11//56 96//56 56//56
f 92//57 98//57 90//57
f 101//58 91//58 99//58
f 25//59 93//59 81//59
f 25//60 89//60 93//60
f 83//61 113//61 23//61
f 93//62 80//62 81//62
f 101//63 86//63 85//63
f 94//64 102//64 85//64
f 42//65 67//65 109//65
f 70//66 89//66 19//66
f 98//67 99//67 74//67
f 99//68 75//68 74//68
f 99//69 91//69 75//69
f 75//70 91//70 76//70
f 85//71 86//71 114//71
f 94//72 85//72 84//72
f 50//73 5//73 31//73
f 6//74 33//74 34//74
f 7//75 35//75 32//75
f 35//76 7//76 103//76
f 97//77 70//77 18//77 87//77
f 39//78 6//78 34//78
f 46//79 36//79 103//79
f 37//80 45//80 39//80
f 38//81 47//81 37//81
f 46//82 40//82 36//82
f 3//83 49//83 104//83
f 62//84 52//84 51//84
f 54//85 65//85 63//85
f 110//86 58//86 57//86
f 110//87 57//87 60//87
f 69//88 60//88 61//88
f 59//89 68//89 66//89
f 18//90 22//90 78//90
f 19//91 20//91 22//91
f 71//92 82//92 20//92
f 74//93 114//93 21//93
f 84//94 85//94 76//94
f 24//95 96//95 11//95
f 24//96 88//96 96//96
f 101//97 99//97 86//97
f 100//98 91//98 94//98
f 86//99 92//99 113//99
f 100//100 84//100 77//100
f 3//101 95//101 49//101
f 26//102 1//102 30//102
f 1//103 4//103 30//103
f 29//104 2//104 32//104
f 33//105 32//105 34//105
f 31//106 33//106 50//106
f 34//107 35//107 39//107
f 39//108 35//108 37//108
f 35//109 36//109 37//109
f 40//110 42//110 3//110
f 104//111 38//111 3//111
f 41//112 96//112 95//112
f 3//113 42//113 41//113
f 37//114 36//114 40//114
f 4//115 1//115 43//115
f 44//116 4//116 43//116
f 4//117 2//117 29//117
f 2//118 4//118 44//118
f 7//119 2//119 50//119
f 50//120 6//120 7//120
f 39//121 45//121 6//121
f 45//122 103//122 6//122
f 47//123 46//123 45//123
f 46//124 48//124 40//124
f 42//125 48//125 67//125
f 49//126 67//126 104//126
f 104//127 48//127 46//127
f 104//128 67//128 48//128
f 50//129 2//129 5//129
f 105//130 8//130 52//130
f 53//131 64//131 65//131
f 64//132 53//132 13//132
f 53//133 52//133 8//133
f 54//134 52//134 53//134
f 51//135 52//135 54//135
f 59//136 14//136 61//136
f 10//137 60//137 109//137
f 109//138 55//138 10//138
f 11//139 56//139 58//139
f 109//140 60//140 57//140
f 109//141 57//141 58//141
f 59//142 60//142 10//142
f 111//143 61//143 14//143
f 13//144 12//144 9//144
f 9//145 12//145 14//145
f 106//146 12//146 8//146
f 62//147 105//147 52//147
f 15//148 105//148 63//148
f 65//149 15//149 63//149
f 64//150 106//150 65//150
f 54//151 63//151 62//151
f 17//152 11//152 108//152
f 11//153 110//153 108//153
f 67//154 17//154 108//154
f 108//155 110//155 55//155
f 68//156 69//156 66//156
f 110//157 69//157 68//157
f 69//158 61//158 111//158
f 107//159 106//159 64//159
f 96//160 87//160 95//160
f 18//161 95//161 87//161
f 19//162 72//162 71//162
f 71//163 20//163 19//163
f 76//164 85//164 75//164
f 76//165 100//165 77//165
f 71//166 73//166 21//166
f 82//167 23//167 22//167
f 83//168 23//168 82//168
f 71//169 21//169 82//169
f 21//170 86//170 83//170
f 87//171 96//171 88//171
f 70//172 97//172 89//172
f 89//173 90//173 19//173
f 72//174 90//174 98//174
f 19//175 90//175 72//175
f 92//176 99//176 98//176
f 79//177 112//177 24//177
f 80//178 112//178 79//178
f 80//179 93//179 112//179
f 113//180 25//180 23//180
f 102//181 91//181 101//181
f 86//182 113//182 83//182
f 87//183 88//183 97//183
f 91//184 100//184 76//184
f 72//185 98//185 73//185
f 17//186 79//186 24//186
f 23//187 25//187 81//187
f 102//188 101//188 85//188
f 28//189 5//189 44//189
f 4//190 29//190 30//190
f 43//191 27//191 44//191
f 7//192 32//192 2//192
f 50//193 33//193 6//193
f 40//194 48//194 42//194
f 104//195 47//195 38//195
f 28//196 31//196 5//196
f 54//197 53//197 65//197
f 8//198 15//198 106//198
f 13//199 9//199 107//199
f 109//200 67//200 108//200
f 110//201 11//201 58//201
f 59//202 10//202 68//202
f 60//203 69//203 110//203
f 55//204 68//204 10//204
f 106//205 16//205 12//205
f 16//206 14//206 12//206
f 14//207 16//207 111//207
f 95//208 18//208 49//208
f 18//209 78//209 49//209
f 18//210 70//210 22//210
f 74//211 85//211 114//211
f 74//212 75//212 85//212
f 76//213 77//213 84//213
f 24//214 112//214 88//214
f 112//215 93//215 89//215
f 112//216 89//216 97//216
f 112//217 97//217 88//217
f 25//218 90//218 89//218
f 90//219 113//219 92//219
f 25//220 113//220 90//220
f 86//221 99//221 92//221
f 94//222 91//222 102//222
f 100//223 94//223 84//223
