# Blender v2.90.1 OBJ File: 'gridCell3D.blend'
# www.blender.org
mtllib gridCell3D.mtl
o Cube
v 0.425000 -0.407127 -0.178974
v 0.442873 -0.442873 -0.196847
v 0.407127 -0.425000 -0.178974
v 0.427626 -0.418487 -0.187707
v 0.422348 -0.415900 -0.178974
v 0.424984 -0.422014 -0.187437
v 0.431513 -0.434140 -0.194221
v 0.434139 -0.431513 -0.194221
v 0.428000 -0.428000 -0.192238
v 0.415899 -0.422348 -0.178974
v 0.418487 -0.427626 -0.187707
v 0.422014 -0.424984 -0.187437
v 0.482127 -0.482126 0.197436
v 0.482127 -0.500000 0.179563
v 0.500000 -0.482126 0.179563
v 0.482127 -0.491051 0.195049
v 0.491052 -0.482126 0.195049
v 0.490674 -0.490674 0.192729
v 0.491052 -0.497612 0.179563
v 0.482127 -0.497612 0.188488
v 0.490674 -0.495292 0.188110
v 0.497612 -0.482126 0.188488
v 0.497612 -0.491051 0.179563
v 0.495293 -0.490674 0.188110
v 0.407127 0.425000 -0.178974
v 0.442873 0.442873 -0.196847
v 0.425000 0.407127 -0.178974
v 0.418487 0.427626 -0.187708
v 0.415899 0.422348 -0.178974
v 0.422014 0.424984 -0.187438
v 0.434139 0.431513 -0.194221
v 0.431513 0.434139 -0.194221
v 0.428000 0.428000 -0.192239
v 0.422348 0.415899 -0.178974
v 0.427626 0.418487 -0.187708
v 0.424984 0.422014 -0.187438
v 0.500000 0.482127 0.179563
v 0.482127 0.500000 0.179563
v 0.482127 0.482127 0.197436
v 0.497612 0.491052 0.179563
v 0.497612 0.482127 0.188487
v 0.495293 0.490674 0.188110
v 0.482127 0.497613 0.188487
v 0.491052 0.497613 0.179563
v 0.490674 0.495293 0.188110
v 0.491052 0.482127 0.195048
v 0.482127 0.491052 0.195048
v 0.490674 0.490674 0.192729
v -0.425000 -0.407127 -0.178974
v -0.407127 -0.425000 -0.178974
v -0.442873 -0.442873 -0.196847
v -0.422348 -0.415900 -0.178974
v -0.427626 -0.418487 -0.187707
v -0.424984 -0.422014 -0.187437
v -0.418487 -0.427626 -0.187707
v -0.415899 -0.422348 -0.178974
v -0.422014 -0.424984 -0.187437
v -0.434139 -0.431513 -0.194221
v -0.431513 -0.434139 -0.194221
v -0.428000 -0.428000 -0.192238
v -0.500000 -0.482126 0.179563
v -0.482127 -0.500000 0.179563
v -0.482127 -0.482126 0.197436
v -0.497612 -0.491051 0.179563
v -0.497612 -0.482126 0.188488
v -0.495293 -0.490674 0.188110
v -0.482127 -0.497612 0.188488
v -0.491052 -0.497612 0.179563
v -0.490674 -0.495292 0.188110
v -0.491052 -0.482126 0.195049
v -0.482127 -0.491051 0.195049
v -0.490674 -0.490674 0.192729
v -0.407127 0.425000 -0.178974
v -0.425000 0.407127 -0.178974
v -0.442873 0.442873 -0.196847
v -0.415899 0.422348 -0.178974
v -0.418487 0.427626 -0.187708
v -0.422014 0.424984 -0.187438
v -0.427626 0.418487 -0.187708
v -0.422348 0.415899 -0.178974
v -0.424984 0.422014 -0.187438
v -0.431513 0.434139 -0.194221
v -0.434139 0.431513 -0.194221
v -0.428000 0.428000 -0.192239
v -0.482127 0.482127 0.197436
v -0.482127 0.500000 0.179563
v -0.500000 0.482127 0.179563
v -0.482127 0.491052 0.195048
v -0.491052 0.482127 0.195048
v -0.490674 0.490674 0.192729
v -0.491052 0.497613 0.179563
v -0.482127 0.497613 0.188487
v -0.490674 0.495293 0.188110
v -0.497612 0.482127 0.188487
v -0.497612 0.491052 0.179563
v -0.495293 0.490674 0.188110
v 0.500000 0.482127 -0.178974
v 0.482127 0.482127 -0.196847
v 0.482127 0.500000 -0.178974
v 0.497612 0.482127 -0.187899
v 0.497612 0.491052 -0.178974
v 0.495293 0.490674 -0.187521
v 0.482127 0.491052 -0.194459
v 0.491052 0.482127 -0.194459
v 0.490674 0.490674 -0.192140
v 0.491052 0.497612 -0.178974
v 0.482127 0.497612 -0.187899
v 0.490674 0.495293 -0.187521
v -0.500000 0.482127 -0.178974
v -0.482127 0.500000 -0.178974
v -0.482127 0.482127 -0.196847
v -0.497612 0.491052 -0.178974
v -0.497612 0.482127 -0.187899
v -0.495293 0.490674 -0.187521
v -0.482127 0.497612 -0.187899
v -0.491052 0.497612 -0.178974
v -0.490674 0.495293 -0.187521
v -0.491052 0.482127 -0.194459
v -0.482127 0.491052 -0.194459
v -0.490674 0.490674 -0.192140
v 0.482127 -0.500000 -0.178974
v 0.482127 -0.482127 -0.196847
v 0.500000 -0.482127 -0.178974
v 0.482127 -0.497612 -0.187898
v 0.491052 -0.497612 -0.178973
v 0.490674 -0.495293 -0.187521
v 0.491052 -0.482127 -0.194459
v 0.482127 -0.491052 -0.194459
v 0.490674 -0.490674 -0.192139
v 0.497612 -0.491052 -0.178973
v 0.497612 -0.482127 -0.187898
v 0.495293 -0.490674 -0.187521
v -0.482127 -0.500000 -0.178974
v -0.500000 -0.482127 -0.178974
v -0.482127 -0.482127 -0.196847
v -0.491052 -0.497612 -0.178973
v -0.482127 -0.497612 -0.187898
v -0.490674 -0.495293 -0.187521
v -0.497612 -0.482127 -0.187898
v -0.497612 -0.491052 -0.178973
v -0.495293 -0.490674 -0.187521
v -0.482127 -0.491052 -0.194459
v -0.491052 -0.482127 -0.194459
v -0.490674 -0.490674 -0.192139
v 0.407127 0.425000 -0.139720
v 0.425000 0.407127 -0.139720
v 0.407127 0.407127 -0.121847
v 0.416052 0.422612 -0.139720
v 0.407127 0.422612 -0.130796
v 0.415674 0.420293 -0.131173
v 0.422612 0.407127 -0.130796
v 0.422612 0.416052 -0.139720
v 0.420293 0.415674 -0.131173
v 0.407127 0.416052 -0.124235
v 0.416052 0.407127 -0.124235
v 0.415674 0.415674 -0.126554
v -0.407127 0.425000 -0.139720
v -0.407127 0.407127 -0.121847
v -0.425000 0.407127 -0.139720
v -0.407127 0.422612 -0.130796
v -0.416052 0.422612 -0.139720
v -0.415674 0.420293 -0.131173
v -0.416052 0.407127 -0.124235
v -0.407127 0.416052 -0.124235
v -0.415674 0.415674 -0.126554
v -0.422612 0.416052 -0.139720
v -0.422612 0.407127 -0.130796
v -0.420293 0.415674 -0.131173
v 0.425000 -0.407127 -0.139720
v 0.407127 -0.425000 -0.139720
v 0.407127 -0.407127 -0.121847
v 0.422612 -0.416052 -0.139720
v 0.422612 -0.407127 -0.130795
v 0.420293 -0.415674 -0.131173
v 0.407127 -0.422612 -0.130795
v 0.416052 -0.422612 -0.139720
v 0.415674 -0.420293 -0.131173
v 0.416052 -0.407127 -0.124235
v 0.407127 -0.416052 -0.124235
v 0.415674 -0.415674 -0.126554
v -0.425000 -0.407127 -0.139720
v -0.407127 -0.407127 -0.121847
v -0.407127 -0.425000 -0.139720
v -0.422612 -0.407127 -0.130795
v -0.422612 -0.416052 -0.139720
v -0.420293 -0.415674 -0.131173
v -0.407127 -0.416052 -0.124235
v -0.416052 -0.407127 -0.124235
v -0.415674 -0.415674 -0.126554
v -0.416052 -0.422612 -0.139720
v -0.407127 -0.422612 -0.130795
v -0.415674 -0.420293 -0.131173
vt 0.860718 0.514282
vt 0.639282 0.514282
vt 0.629468 0.504468
vt 0.870532 0.504468
vt 0.856250 0.523218
vt 0.856250 0.726782
vt 0.856250 0.726782
vt 0.856250 0.523218
vt 0.648218 0.523218
vt 0.851782 0.523218
vt 0.851782 0.726782
vt 0.648218 0.726782
vt 0.851782 0.731250
vt 0.648218 0.731250
vt 0.648218 0.731250
vt 0.851782 0.731250
vt 0.129468 0.504468
vt 0.370532 0.504468
vt 0.370532 0.745532
vt 0.129468 0.745532
vt 0.379468 0.504468
vt 0.620532 0.504468
vt 0.620532 0.745532
vt 0.379468 0.745532
vt 0.379468 0.754468
vt 0.620532 0.754468
vt 0.620532 0.995532
vt 0.379468 0.995532
vt 0.648218 0.518750
vt 0.851782 0.518750
vt 0.851782 0.518750
vt 0.648218 0.518750
vt 0.379468 0.004468
vt 0.620532 0.004468
vt 0.620532 0.245532
vt 0.379468 0.245532
vt 0.379468 0.254468
vt 0.620532 0.254468
vt 0.620532 0.495532
vt 0.379468 0.495532
vt 0.639282 0.735718
vt 0.629468 0.745532
vt 0.860718 0.735718
vt 0.870532 0.745532
vt 0.643750 0.523218
vt 0.643750 0.520378
vt 0.643750 0.519497
vt 0.643750 0.521025
vt 0.643750 0.518750
vt 0.643750 0.518750
vt 0.642122 0.516465
vt 0.643000 0.518000
vt 0.641465 0.517122
vt 0.645378 0.518750
vt 0.644497 0.518750
vt 0.646025 0.518750
vt 0.645378 0.518750
vt 0.643750 0.518750
vt 0.643750 0.518750
vt 0.370532 0.502237
vt 0.372668 0.502331
vt 0.372763 0.504468
vt 0.370532 0.500000
vt 0.372668 0.500000
vt 0.379468 0.497763
vt 0.377331 0.497669
vt 0.377237 0.495532
vt 0.379468 0.500000
vt 0.377331 0.500000
vt 0.377237 0.504468
vt 0.377331 0.502331
vt 0.379468 0.502237
vt 0.375000 0.504468
vt 0.375000 0.502331
vt 0.375000 0.502331
vt 0.645378 0.731250
vt 0.644497 0.731250
vt 0.646025 0.731250
vt 0.643750 0.731250
vt 0.643750 0.731250
vt 0.641465 0.732878
vt 0.643000 0.732000
vt 0.642122 0.733535
vt 0.643750 0.729622
vt 0.643750 0.730503
vt 0.643750 0.726782
vt 0.643750 0.728975
vt 0.643750 0.731250
vt 0.643750 0.731250
vt 0.379468 0.747763
vt 0.377331 0.747668
vt 0.377237 0.745532
vt 0.379468 0.750000
vt 0.377331 0.750000
vt 0.377237 0.754468
vt 0.377331 0.752331
vt 0.379468 0.752237
vt 0.370532 0.749403
vt 0.370532 0.750000
vt 0.372668 0.750000
vt 0.372669 0.748823
vt 0.372763 0.745532
vt 0.372668 0.747668
vt 0.370532 0.747763
vt 0.375000 0.745532
vt 0.375000 0.747669
vt 0.377332 0.751177
vt 0.375000 0.752331
vt 0.375000 0.752331
vt 0.856250 0.521025
vt 0.856250 0.519497
vt 0.856250 0.520378
vt 0.856250 0.518750
vt 0.856250 0.518750
vt 0.854622 0.518750
vt 0.855503 0.518750
vt 0.853975 0.518750
vt 0.856250 0.518750
vt 0.856250 0.518750
vt 0.858535 0.517122
vt 0.857000 0.518000
vt 0.857878 0.516465
vt 0.379468 0.247763
vt 0.377331 0.247668
vt 0.377237 0.245532
vt 0.379468 0.250000
vt 0.377331 0.250000
vt 0.377237 0.254468
vt 0.377331 0.252332
vt 0.379468 0.252237
vt 0.129468 0.500597
vt 0.129468 0.500000
vt 0.127332 0.500000
vt 0.127332 0.501177
vt 0.127237 0.504468
vt 0.127332 0.502331
vt 0.129468 0.502237
vt 0.125000 0.504468
vt 0.125000 0.502331
vt 0.375000 0.247668
vt 0.853975 0.731250
vt 0.855504 0.731250
vt 0.854622 0.731250
vt 0.856250 0.731250
vt 0.856250 0.731250
vt 0.856250 0.729622
vt 0.856250 0.730503
vt 0.856250 0.728975
vt 0.856250 0.731250
vt 0.856250 0.731250
vt 0.857878 0.733535
vt 0.857000 0.732000
vt 0.858535 0.732878
vt 0.854622 0.731250
vt 0.129468 0.747763
vt 0.127332 0.747668
vt 0.127237 0.745532
vt 0.129468 0.750000
vt 0.127332 0.750000
vt 0.379468 0.997763
vt 0.377331 0.997669
vt 0.377237 0.995532
vt 0.379468 0.000597
vt 0.379468 0.000000
vt 0.377331 0.000000
vt 0.377332 0.001177
vt 0.377237 0.004468
vt 0.377331 0.002332
vt 0.379468 0.002237
vt 0.125597 0.745532
vt 0.125000 0.745532
vt 0.125000 0.747669
vt 0.126177 0.747669
vt 0.125000 0.747669
vt 0.622763 0.745532
vt 0.622669 0.747668
vt 0.620532 0.747763
vt 0.625000 0.745532
vt 0.625000 0.747669
vt 0.629468 0.747763
vt 0.627331 0.747669
vt 0.627237 0.745532
vt 0.624403 0.754468
vt 0.625000 0.754468
vt 0.625000 0.752331
vt 0.623823 0.752332
vt 0.620532 0.752237
vt 0.622669 0.752331
vt 0.622763 0.754468
vt 0.620532 0.750000
vt 0.622668 0.750000
vt 0.622668 0.750000
vt 0.620532 0.002237
vt 0.622669 0.002332
vt 0.622763 0.004468
vt 0.620532 0.000000
vt 0.622668 0.000000
vt 0.622763 0.995532
vt 0.622669 0.997669
vt 0.620532 0.997763
vt 0.625000 0.995532
vt 0.625000 0.997669
vt 0.872763 0.745532
vt 0.872669 0.747669
vt 0.870532 0.747763
vt 0.624403 0.004468
vt 0.625000 0.004468
vt 0.625000 0.002332
vt 0.623823 0.002332
vt 0.625000 0.002332
vt 0.622763 0.495532
vt 0.622669 0.497668
vt 0.620532 0.497763
vt 0.625000 0.495532
vt 0.625000 0.497669
vt 0.627237 0.504468
vt 0.627331 0.502331
vt 0.629468 0.502237
vt 0.625000 0.504468
vt 0.625000 0.502331
vt 0.620532 0.502237
vt 0.622669 0.502331
vt 0.622763 0.504468
vt 0.620532 0.500000
vt 0.622668 0.500000
vt 0.622668 0.500000
vt 0.620532 0.252237
vt 0.622669 0.252332
vt 0.622763 0.254468
vt 0.620532 0.250000
vt 0.622668 0.250000
vt 0.622763 0.245532
vt 0.622669 0.247668
vt 0.620532 0.247763
vt 0.625000 0.245532
vt 0.625000 0.247668
vt 0.870532 0.502237
vt 0.872669 0.502331
vt 0.872763 0.504468
vt 0.624403 0.254468
vt 0.625000 0.254468
vt 0.625000 0.252331
vt 0.623823 0.252332
vt 0.622669 0.248823
vt 0.645987 0.731250
vt 0.646082 0.731250
vt 0.648218 0.731250
vt 0.643750 0.731250
vt 0.643750 0.731250
vt 0.643750 0.726782
vt 0.643750 0.726782
vt 0.643750 0.728918
vt 0.643750 0.729013
vt 0.643750 0.726782
vt 0.643750 0.728919
vt 0.648218 0.729013
vt 0.646081 0.728918
vt 0.645987 0.726782
vt 0.851782 0.731250
vt 0.853919 0.731250
vt 0.854013 0.731250
vt 0.851782 0.731250
vt 0.853919 0.731250
vt 0.854013 0.726782
vt 0.853919 0.728919
vt 0.851782 0.729013
vt 0.856250 0.726782
vt 0.856250 0.728919
vt 0.856250 0.729013
vt 0.856250 0.731250
vt 0.856250 0.731250
vt 0.643750 0.523218
vt 0.643750 0.520987
vt 0.643750 0.521082
vt 0.643750 0.523218
vt 0.643750 0.518750
vt 0.643750 0.518750
vt 0.648218 0.518750
vt 0.646082 0.518750
vt 0.645987 0.518750
vt 0.648218 0.518750
vt 0.646082 0.518750
vt 0.645987 0.523218
vt 0.646081 0.521081
vt 0.648218 0.520987
vt 0.856250 0.523218
vt 0.856250 0.521082
vt 0.856250 0.520987
vt 0.856250 0.523218
vt 0.856250 0.521082
vt 0.851782 0.520987
vt 0.853919 0.521082
vt 0.854013 0.523218
vt 0.851782 0.518750
vt 0.853919 0.518750
vt 0.854013 0.518750
vt 0.856250 0.518750
vt 0.856250 0.518750
vt 0.125000 0.745532
vt 0.129468 0.500000
vt 0.379468 0.000000
vt 0.625000 0.754468
vt 0.370532 0.750000
vt 0.625000 0.004468
vt 0.625000 0.254468
vn 0.0372 0.0372 -0.9986
vn -0.0372 0.0372 -0.9986
vn 0.1296 -0.1296 -0.9830
vn -0.1296 -0.1296 -0.9830
vn 0.9764 0.1105 -0.1856
vn 0.9764 -0.1105 -0.1856
vn 0.9826 -0.1336 -0.1287
vn 0.9826 0.1336 -0.1287
vn -0.1296 0.1296 -0.9830
vn 0.1296 0.1296 -0.9830
vn 0.1105 -0.9764 -0.1856
vn -0.1105 -0.9764 -0.1856
vn -0.1336 -0.9826 -0.1287
vn 0.1336 -0.9826 -0.1287
vn -0.1296 -0.1296 0.9830
vn 0.1296 -0.1296 0.9830
vn 0.1296 0.1296 0.9830
vn -0.1296 0.1296 0.9830
vn 0.9830 -0.1296 0.1296
vn 0.9830 -0.1296 -0.1296
vn 0.9830 0.1296 -0.1296
vn 0.9830 0.1296 0.1296
vn 0.1296 0.9830 0.1296
vn 0.1296 0.9830 -0.1296
vn -0.1296 0.9830 -0.1296
vn -0.1296 0.9830 0.1296
vn -0.1105 0.9764 -0.1856
vn 0.1105 0.9764 -0.1856
vn 0.1336 0.9826 -0.1287
vn -0.1336 0.9826 -0.1287
vn -0.9830 0.1296 0.1296
vn -0.9830 0.1296 -0.1296
vn -0.9830 -0.1296 -0.1296
vn -0.9830 -0.1296 0.1296
vn -0.1296 -0.9830 0.1296
vn -0.1296 -0.9831 -0.1296
vn 0.1296 -0.9831 -0.1296
vn 0.1296 -0.9830 0.1296
vn -0.0372 -0.0372 -0.9986
vn 0.0372 -0.0372 -0.9986
vn -0.9764 0.1105 -0.1856
vn -0.7038 0.1875 -0.6851
vn -0.4947 0.4559 -0.7398
vn -0.8151 0.4859 -0.3154
vn -0.2704 0.1040 -0.9571
vn -0.3177 0.3177 -0.8934
vn -0.1040 0.2704 -0.9571
vn -0.1875 0.7038 -0.6851
vn -0.4559 0.4947 -0.7398
vn -0.4859 0.8151 -0.3154
vn 0.1216 -0.4915 0.8623
vn 0.4473 -0.4473 0.7744
vn 0.4915 -0.1216 0.8623
vn 0.1216 -0.8623 0.4915
vn 0.4473 -0.7744 0.4473
vn 0.4915 -0.8623 0.1216
vn 0.8623 -0.4915 0.1216
vn 0.7744 -0.4473 0.4473
vn 0.8623 -0.1216 0.4915
vn -0.1875 -0.7038 -0.6851
vn -0.4559 -0.4947 -0.7398
vn -0.4859 -0.8151 -0.3154
vn -0.1040 -0.2704 -0.9571
vn -0.3177 -0.3177 -0.8934
vn -0.2704 -0.1040 -0.9571
vn -0.7038 -0.1875 -0.6851
vn -0.4947 -0.4559 -0.7398
vn -0.9764 -0.1105 -0.1856
vn -0.8151 -0.4859 -0.3154
vn 0.8623 0.4915 0.1216
vn 0.7744 0.4473 0.4473
vn 0.8623 0.1216 0.4915
vn 0.4915 0.8623 0.1216
vn 0.4473 0.7744 0.4473
vn 0.1216 0.8623 0.4915
vn 0.1216 0.4915 0.8623
vn 0.4473 0.4473 0.7744
vn 0.4915 0.1216 0.8623
vn 0.8151 0.4859 -0.3154
vn 0.4947 0.4559 -0.7398
vn 0.7038 0.1875 -0.6851
vn 0.4859 0.8151 -0.3154
vn 0.4559 0.4947 -0.7398
vn 0.1875 0.7038 -0.6851
vn 0.1040 0.2704 -0.9571
vn 0.3177 0.3177 -0.8934
vn 0.2704 0.1040 -0.9571
vn -0.8623 -0.4915 0.1216
vn -0.7744 -0.4473 0.4473
vn -0.8623 -0.1216 0.4915
vn -0.4915 -0.8623 0.1216
vn -0.4473 -0.7744 0.4473
vn -0.1216 -0.8623 0.4915
vn -0.1216 -0.4915 0.8623
vn -0.4473 -0.4473 0.7744
vn -0.4915 -0.1216 0.8623
vn 0.4859 -0.8151 -0.3154
vn 0.4559 -0.4947 -0.7398
vn 0.1875 -0.7038 -0.6851
vn 0.8151 -0.4859 -0.3154
vn 0.4947 -0.4559 -0.7398
vn 0.7038 -0.1875 -0.6851
vn 0.2704 -0.1040 -0.9571
vn 0.3177 -0.3177 -0.8934
vn 0.1040 -0.2704 -0.9571
vn -0.1216 0.4915 0.8623
vn -0.4473 0.4473 0.7744
vn -0.4915 0.1216 0.8623
vn -0.1216 0.8623 0.4915
vn -0.4473 0.7744 0.4473
vn -0.4915 0.8623 0.1216
vn -0.8623 0.4915 0.1216
vn -0.7744 0.4473 0.4473
vn -0.8623 0.1216 0.4915
vn 0.8623 0.1216 -0.4915
vn 0.7744 0.4473 -0.4473
vn 0.8623 0.4915 -0.1216
vn 0.4915 0.1216 -0.8623
vn 0.4473 0.4473 -0.7744
vn 0.1216 0.4915 -0.8623
vn 0.1216 0.8623 -0.4915
vn 0.4473 0.7744 -0.4473
vn 0.4915 0.8623 -0.1216
vn -0.8623 0.4915 -0.1216
vn -0.7744 0.4473 -0.4473
vn -0.8623 0.1216 -0.4915
vn -0.4915 0.8623 -0.1216
vn -0.4473 0.7744 -0.4473
vn -0.1216 0.8623 -0.4915
vn -0.1216 0.4915 -0.8623
vn -0.4473 0.4473 -0.7744
vn -0.4915 0.1216 -0.8623
vn 0.1216 -0.8623 -0.4915
vn 0.4473 -0.7744 -0.4473
vn 0.4915 -0.8623 -0.1216
vn 0.1216 -0.4915 -0.8623
vn 0.4473 -0.4473 -0.7744
vn 0.4915 -0.1216 -0.8623
vn 0.8623 -0.1216 -0.4915
vn 0.7744 -0.4473 -0.4473
vn 0.8623 -0.4915 -0.1216
vn -0.4915 -0.8623 -0.1216
vn -0.4473 -0.7744 -0.4473
vn -0.1216 -0.8623 -0.4915
vn -0.8623 -0.4915 -0.1216
vn -0.7744 -0.4473 -0.4473
vn -0.8623 -0.1216 -0.4915
vn -0.4915 -0.1216 -0.8623
vn -0.4473 -0.4473 -0.7744
vn -0.1216 -0.4915 -0.8623
vn -0.4953 -0.8606 -0.1186
vn -0.8606 -0.4953 -0.1186
vn -0.9826 -0.1336 -0.1287
vn 0.4953 -0.8606 -0.1186
vn 0.8606 -0.4953 -0.1186
vn -0.9826 0.1336 -0.1287
vn -0.8606 0.4953 -0.1186
vn -0.4953 0.8606 -0.1186
vn 0.8606 0.4953 -0.1186
vn 0.4953 0.8606 -0.1186
usemtl Material
s 1
f 51/1/1 2/2/2 122/3/3 135/4/4
f 49/5/5 74/6/6 159/7/7 181/8/8
f 171/9/9 182/10/10 158/11/3 147/12/4
f 73/13/11 25/14/12 145/15/13 157/16/14
f 63/17/15 13/18/16 39/19/17 85/20/18
f 15/21/19 123/22/20 97/23/21 37/24/22
f 38/25/23 99/26/24 110/27/25 86/28/26
f 3/29/27 50/30/28 183/31/29 170/32/30
f 87/33/31 109/34/32 134/35/33 61/36/34
f 62/37/35 133/38/36 121/39/37 14/40/38
f 2/2/2 26/41/39 98/42/10 122/3/3
f 75/43/40 51/1/1 135/4/4 111/44/9
f 26/41/39 75/43/40 111/44/9 98/42/10
f 1/45/41 4/46/42 6/47/43 5/48/44
f 4/46/42 8/49/45 9/50/46 6/47/43
f 2/2/2 7/51/47 9/52/46 8/53/45
f 7/51/47 11/54/48 12/55/49 9/52/46
f 3/29/27 10/56/50 12/55/49 11/57/48
f 10/56/50 5/58/44 6/59/43 12/55/49
f 6/47/43 9/52/46 12/55/49
f 13/18/16 16/60/51 18/61/52 17/62/53
f 16/60/51 20/63/54 21/64/55 18/61/52
f 14/40/38 19/65/56 21/66/55 20/67/54
f 19/65/56 23/68/57 24/69/58 21/66/55
f 15/21/19 22/70/59 24/71/58 23/72/57
f 22/70/59 17/73/53 18/74/52 24/71/58
f 18/61/52 21/64/55 24/75/58
f 25/14/12 28/76/60 30/77/61 29/78/62
f 28/76/60 32/79/63 33/80/64 30/77/61
f 26/41/39 31/81/65 33/82/64 32/83/63
f 31/81/65 35/84/66 36/85/67 33/82/64
f 27/86/68 34/87/69 36/85/67 35/84/66
f 34/87/69 29/88/62 30/89/61 36/85/67
f 30/77/61 33/82/64 36/85/67
f 37/24/22 40/90/70 42/91/71 41/92/72
f 40/90/70 44/93/73 45/94/74 42/91/71
f 38/25/23 43/95/75 45/96/74 44/97/73
f 43/98/75 47/99/76 48/100/77 45/101/74
f 39/19/17 46/102/78 48/103/77 47/104/76
f 46/102/78 41/105/72 42/106/71 48/103/77
f 42/107/71 45/108/74 48/109/77
f 49/5/5 52/110/79 54/111/80 53/112/81
f 52/110/79 56/113/82 57/114/83 54/111/80
f 50/30/28 55/115/84 57/116/83 56/117/82
f 55/115/84 59/118/85 60/119/86 57/116/83
f 51/1/1 58/120/87 60/121/86 59/122/85
f 58/120/87 53/112/81 54/111/80 60/121/86
f 54/111/80 57/116/83 60/121/86
f 61/36/34 64/123/88 66/124/89 65/125/90
f 64/123/88 68/126/91 69/127/92 66/124/89
f 62/37/35 67/128/93 69/129/92 68/130/91
f 67/131/93 71/132/94 72/133/95 69/134/92
f 63/17/15 70/135/96 72/136/95 71/137/94
f 70/135/96 65/138/90 66/139/89 72/136/95
f 66/124/89 69/127/92 72/140/95
f 73/13/11 76/141/97 78/142/98 77/143/99
f 76/141/97 80/144/100 81/145/101 78/142/98
f 74/6/6 79/146/102 81/147/101 80/148/100
f 79/146/102 83/149/103 84/150/104 81/147/101
f 75/43/40 82/151/105 84/152/104 83/153/103
f 82/151/105 77/154/99 78/142/98 84/152/104
f 78/142/98 81/147/101 84/152/104
f 85/20/18 88/155/106 90/156/107 89/157/108
f 88/155/106 92/158/109 93/159/110 90/156/107
f 86/28/26 91/160/111 93/161/110 92/162/109
f 91/163/111 95/164/112 96/165/113 93/166/110
f 87/33/31 94/167/114 96/168/113 95/169/112
f 94/170/114 89/171/108 90/172/107 96/173/113
f 90/156/107 93/159/110 96/174/113
f 97/23/21 100/175/115 102/176/116 101/177/117
f 100/175/115 104/178/118 105/179/119 102/176/116
f 98/42/10 103/180/120 105/181/119 104/182/118
f 103/183/120 107/184/121 108/185/122 105/186/119
f 99/26/24 106/187/123 108/188/122 107/189/121
f 106/187/123 101/190/117 102/191/116 108/188/122
f 102/176/116 105/179/119 108/192/122
f 109/34/32 112/193/124 114/194/125 113/195/126
f 112/193/124 116/196/127 117/197/128 114/194/125
f 110/27/25 115/198/129 117/199/128 116/200/127
f 115/198/129 119/201/130 120/202/131 117/199/128
f 111/44/9 118/203/132 120/204/131 119/205/130
f 118/206/132 113/207/126 114/208/125 120/209/131
f 114/194/125 117/197/128 120/210/131
f 121/39/37 124/211/133 126/212/134 125/213/135
f 124/211/133 128/214/136 129/215/137 126/212/134
f 122/3/3 127/216/138 129/217/137 128/218/136
f 127/216/138 131/219/139 132/220/140 129/217/137
f 123/22/20 130/221/141 132/222/140 131/223/139
f 130/221/141 125/224/135 126/225/134 132/222/140
f 126/212/134 129/215/137 132/226/140
f 133/38/36 136/227/142 138/228/143 137/229/144
f 136/227/142 140/230/145 141/231/146 138/228/143
f 134/35/33 139/232/147 141/233/146 140/234/145
f 139/232/147 143/235/148 144/236/149 141/233/146
f 135/4/4 142/237/150 144/238/149 143/239/148
f 142/240/150 137/241/144 138/242/143 144/243/149
f 138/244/143 141/231/146 144/236/149
f 145/15/13 148/245/151 150/246/143 149/247/144
f 148/245/151 152/248/152 153/249/146 150/246/143
f 146/250/153 151/251/147 153/252/146 152/253/152
f 151/251/147 155/254/148 156/255/149 153/252/146
f 147/12/4 154/256/150 156/257/149 155/258/148
f 154/256/150 149/247/144 150/246/143 156/257/149
f 150/246/143 153/252/146 156/257/149
f 157/16/14 160/259/133 162/260/134 161/261/154
f 160/259/133 164/262/136 165/263/137 162/260/134
f 158/11/3 163/264/138 165/265/137 164/266/136
f 163/264/138 167/267/139 168/268/140 165/265/137
f 159/7/7 166/269/155 168/268/140 167/267/139
f 166/269/155 161/270/154 162/271/134 168/268/140
f 162/260/134 165/265/137 168/268/140
f 169/272/156 172/273/157 174/274/125 173/275/126
f 172/273/157 176/276/158 177/277/128 174/274/125
f 170/32/30 175/278/129 177/279/128 176/280/158
f 175/278/129 179/281/130 180/282/131 177/279/128
f 171/9/9 178/283/132 180/284/131 179/285/130
f 178/283/132 173/275/126 174/274/125 180/284/131
f 174/274/125 177/279/128 180/284/131
f 181/8/8 184/286/115 186/287/116 185/288/159
f 184/286/115 188/289/118 189/290/119 186/287/116
f 182/10/10 187/291/120 189/292/119 188/293/118
f 187/291/120 191/294/121 192/295/122 189/292/119
f 183/31/29 190/296/160 192/295/122 191/294/121
f 190/296/160 185/297/159 186/298/116 192/295/122
f 186/287/116 189/292/119 192/295/122
f 63/17/15 85/20/18 89/157/108 70/135/96
f 70/135/96 89/157/108 94/299/114 65/138/90
f 65/125/90 94/167/114 87/33/31 61/36/34
f 13/18/16 63/17/15 71/137/94 16/60/51
f 16/60/51 71/137/94 67/300/93 20/63/54
f 20/67/54 67/128/93 62/37/35 14/40/38
f 123/22/20 15/21/19 23/72/57 130/221/141
f 130/221/141 23/72/57 19/65/56 125/213/135
f 125/213/135 19/65/56 14/40/38 121/39/37
f 86/28/26 110/27/25 116/200/127 91/160/111
f 91/301/111 116/196/127 112/193/124 95/169/112
f 95/169/112 112/193/124 109/34/32 87/33/31
f 99/26/24 38/25/23 44/97/73 106/187/123
f 106/187/123 44/97/73 40/90/70 101/177/117
f 101/177/117 40/90/70 37/24/22 97/23/21
f 133/38/36 62/37/35 68/130/91 136/227/142
f 136/227/142 68/130/91 64/123/88 140/234/145
f 140/234/145 64/123/88 61/36/34 134/35/33
f 98/42/10 111/44/9 119/205/130 103/180/120
f 103/302/120 119/201/130 115/198/129 107/189/121
f 107/189/121 115/198/129 110/27/25 99/26/24
f 122/3/3 98/42/10 104/182/118 127/216/138
f 127/216/138 104/182/118 100/175/115 131/223/139
f 131/223/139 100/175/115 97/23/21 123/22/20
f 85/20/18 39/19/17 47/104/76 88/155/106
f 88/155/106 47/104/76 43/303/75 92/158/109
f 92/162/109 43/95/75 38/25/23 86/28/26
f 111/44/9 135/4/4 143/239/148 118/203/132
f 118/304/132 143/235/148 139/232/147 113/195/126
f 113/195/126 139/232/147 134/35/33 109/34/32
f 135/4/4 122/3/3 128/218/136 142/237/150
f 142/305/150 128/214/136 124/211/133 137/229/144
f 137/229/144 124/211/133 121/39/37 133/38/36
f 39/19/17 13/18/16 17/62/53 46/102/78
f 46/102/78 17/62/53 22/70/59 41/92/72
f 41/92/72 22/70/59 15/21/19 37/24/22
f 25/14/12 73/13/11 77/143/99 28/76/60
f 28/76/60 77/143/99 82/151/105 32/83/63
f 32/83/63 82/151/105 75/43/40 26/41/39
f 1/45/41 27/86/68 35/84/66 4/46/42
f 4/46/42 35/84/66 31/81/65 8/53/45
f 8/53/45 31/81/65 26/41/39 2/2/2
f 74/6/6 49/5/5 53/112/81 79/146/102
f 79/146/102 53/112/81 58/120/87 83/153/103
f 83/153/103 58/120/87 51/1/1 75/43/40
f 50/30/28 3/29/27 11/57/48 55/115/84
f 55/115/84 11/57/48 7/51/47 59/122/85
f 59/122/85 7/51/47 2/2/2 51/1/1
f 147/12/4 158/11/3 164/266/136 154/256/150
f 154/256/150 164/266/136 160/259/133 149/247/144
f 149/247/144 160/259/133 157/16/14 145/15/13
f 171/9/9 147/12/4 155/258/148 178/283/132
f 178/283/132 155/258/148 151/251/147 173/275/126
f 173/275/126 151/251/147 146/250/153 169/272/156
f 158/11/3 182/10/10 188/293/118 163/264/138
f 163/264/138 188/293/118 184/286/115 167/267/139
f 167/267/139 184/286/115 181/8/8 159/7/7
f 182/10/10 171/9/9 179/285/130 187/291/120
f 187/291/120 179/285/130 175/278/129 191/294/121
f 191/294/121 175/278/129 170/32/30 183/31/29
f 49/5/5 181/8/8 185/288/159 52/110/79
f 52/110/79 185/288/159 190/296/160 56/117/82
f 56/117/82 190/296/160 183/31/29 50/30/28
f 169/272/156 1/45/41 5/48/44 172/273/157
f 172/273/157 5/48/44 10/56/50 176/280/158
f 176/280/158 10/56/50 3/29/27 170/32/30
f 145/15/13 25/14/12 29/78/62 148/245/151
f 148/245/151 29/78/62 34/87/69 152/253/152
f 152/253/152 34/87/69 27/86/68 146/250/153
f 73/13/11 157/16/14 161/261/154 76/141/97
f 76/141/97 161/261/154 166/269/155 80/148/100
f 80/148/100 166/269/155 159/7/7 74/6/6
f 27/86/68 1/45/41 169/272/156 146/250/153
